<svg width="485" height="286" fill="none" xmlns="http://www.w3.org/2000/svg"><rect width="600" height="30" transform="translate(0.5 300.019) rotate(-30)" fill="#E9B100"/><path d="M34.575 303.551L33.439 301.583L35.6699 300.295C36.0486 300.077 36.2744 299.817 36.3471 299.516C36.4199 299.216 36.3496 298.881 36.1363 298.511C35.9229 298.142 35.6705 297.918 35.3791 297.84C35.0824 297.752 34.7446 297.818 34.3659 298.037L32.135 299.325L31.255 297.801L33.4027 296.561C34.114 296.15 34.8021 295.87 35.4669 295.72C36.1264 295.561 36.7298 295.582 37.2771 295.783C37.8245 295.985 38.2848 296.408 38.6581 297.055L38.7701 297.249C39.1221 297.859 39.2803 298.463 39.2446 299.063C39.2089 299.662 38.9806 300.238 38.5596 300.789C38.1387 301.339 37.5264 301.847 36.7227 302.311L34.575 303.551ZM32.358 304.831L26.422 294.549L28.9161 293.109L34.8521 303.391L32.358 304.831ZM31.911 298.937L31.031 297.413L32.8878 296.341C33.2665 296.122 33.4857 295.872 33.5453 295.591C33.6088 295.296 33.5419 294.978 33.3446 294.636C33.1419 294.285 32.8995 294.068 32.6173 293.984C32.339 293.886 32.0105 293.946 31.6318 294.165L29.775 295.237L28.639 293.269L30.3849 292.261C31.5673 291.579 32.6258 291.3 33.5605 291.426C34.4898 291.542 35.2184 292.057 35.7464 292.972L35.8664 293.18C36.2344 293.817 36.3642 294.426 36.2556 295.006C36.151 295.571 35.8649 296.1 35.3974 296.591C34.9391 297.078 34.359 297.523 33.6569 297.929L31.911 298.937ZM41.958 299.177L36.118 289.062L38.6953 287.574L44.5353 297.689L41.958 299.177ZM44.2582 297.849L42.9622 295.605L47.0637 293.237L48.3597 295.481L44.2582 297.849ZM48.8783 295.182L46.2807 283.195L50.41 280.811L59.6032 288.99L56.9428 290.526L49.5378 283.716L50.4322 283.569L48.6031 284.625L49.1914 283.916L51.4556 293.694L48.8783 295.182ZM50.1729 291.312L49.7329 288.758L53.5711 286.542L55.5631 288.2L50.1729 291.312ZM65.1649 286.148C64.2504 286.676 63.3745 286.973 62.5373 287.037C61.6948 287.093 60.9117 286.984 60.1881 286.712C59.4592 286.431 58.8171 286.044 58.2619 285.552C57.7067 285.06 57.2637 284.527 56.9331 283.954L56.7571 283.65C56.3891 283.012 56.1307 282.33 55.9819 281.603C55.837 280.861 55.8331 280.119 55.97 279.374C56.1162 278.625 56.4272 277.916 56.9032 277.247C57.3792 276.578 58.0513 275.993 58.9196 275.491C59.8434 274.958 60.7623 274.662 61.6762 274.602C62.5941 274.528 63.4514 274.679 64.2483 275.057C65.0398 275.425 65.7098 275.999 66.2584 276.778L63.6811 278.266C63.4138 277.953 63.0992 277.728 62.7374 277.592C62.3756 277.456 61.9884 277.415 61.5759 277.468C61.158 277.512 60.7366 277.657 60.3116 277.902C59.9144 278.132 59.5942 278.409 59.3508 278.734C59.1168 279.054 58.9635 279.407 58.8912 279.794C58.8227 280.166 58.8324 280.567 58.9203 280.997C59.0175 281.421 59.1967 281.859 59.4581 282.312C59.7194 282.765 60.0095 283.139 60.3283 283.435C60.6564 283.726 61.006 283.937 61.377 284.068C61.7573 284.193 62.1491 284.232 62.5524 284.183C62.9504 284.126 63.3572 283.977 63.7729 283.737C64.4196 283.364 64.8739 282.892 65.136 282.322C65.4073 281.747 65.4371 281.169 65.2255 280.589L67.8028 279.101C68.157 279.907 68.303 280.746 68.2407 281.62C68.1784 282.493 67.8964 283.327 67.3945 284.122C66.8873 284.908 66.1441 285.583 65.1649 286.148ZM78.1236 278.297L72.1116 275.468L70.7398 276.26L71.7155 268.51L74.6807 266.798L73.8067 273.732L73.2387 272.748L81.2274 276.505L78.1236 278.297ZM71.3894 282.185L65.5494 272.07L68.1267 270.582L73.9667 280.697L71.3894 282.185Z" fill="#111111"/><path d="M89.9111 271.492L84.0711 261.377L85.429 260.593L91.269 270.708L89.9111 271.492ZM88.3919 266.364L87.6879 265.145L92.0169 262.627L92.7209 263.847L88.3919 266.364ZM85.8559 261.972L85.1519 260.753L89.7245 258.113L90.4285 259.332L85.8559 261.972ZM97.6647 267.015L91.7927 256.845L93.1506 256.061L99.0226 266.231L97.6647 267.015ZM103.914 263.407L97.9607 260.84L99.5542 259.92L105.563 262.455L103.914 263.407ZM96.3979 262.869L95.7019 261.664L98.4178 260.096C98.8427 259.85 99.1569 259.552 99.3605 259.2C99.564 258.849 99.6609 258.473 99.6511 258.072C99.6361 257.662 99.5139 257.258 99.2845 256.861C99.0552 256.464 98.7694 256.161 98.4271 255.952C98.0795 255.734 97.7026 255.625 97.2965 255.625C96.8849 255.617 96.4667 255.735 96.0418 255.98L93.3259 257.548L92.6379 256.357L95.1044 254.933C95.8434 254.506 96.554 254.243 97.2363 254.145C97.9185 254.047 98.5454 254.141 99.1169 254.427C99.6884 254.712 100.185 255.22 100.606 255.95L100.734 256.172C101.156 256.902 101.342 257.588 101.295 258.231C101.257 258.869 101.025 259.459 100.598 260.001C100.181 260.537 99.6034 261.018 98.8644 261.445L96.3979 262.869ZM107.395 261.398L101.555 251.283L102.913 250.499L108.753 260.614L107.395 261.398ZM112.837 258.329L112.117 257.082L114.639 255.626C115.248 255.274 115.733 254.865 116.092 254.399C116.455 253.919 116.701 253.407 116.831 252.864C116.97 252.316 116.992 251.755 116.895 251.183C116.799 250.61 116.593 250.052 116.279 249.507C115.948 248.934 115.561 248.467 115.119 248.107C114.672 247.737 114.178 247.48 113.639 247.335C113.104 247.176 112.543 247.143 111.956 247.236C111.378 247.323 110.784 247.543 110.175 247.895L107.653 249.351L106.933 248.103L109.316 246.727C110.231 246.199 111.108 245.884 111.947 245.781C112.782 245.669 113.559 245.725 114.28 245.949C115.005 246.159 115.649 246.496 116.212 246.959C116.769 247.413 117.224 247.945 117.576 248.554L117.752 248.859C118.094 249.45 118.324 250.105 118.444 250.825C118.563 251.544 118.535 252.274 118.36 253.016C118.194 253.752 117.859 254.463 117.355 255.148C116.846 255.824 116.135 256.425 115.22 256.953L112.837 258.329ZM111.756 258.953L105.852 248.727L107.21 247.943L113.114 258.169L111.756 258.953ZM121.279 253.381L119.083 241.162L121.384 239.834L130.979 247.781L129.579 248.589L120.856 241.321L121.713 241.27L120.078 242.214L120.593 241.473L122.637 252.597L121.279 253.381ZM121.711 249.105L121.464 247.621L125.829 245.101L126.99 246.057L121.711 249.105ZM131.677 242.132L124.894 237.808L126.307 236.992L132.079 240.717L131.465 240.868L133.1 239.924L132.633 240.397L132.127 233.632L133.457 232.864L134.004 240.788L131.677 242.132ZM134.447 245.779L132.015 241.566L133.346 240.798L135.778 245.011L134.447 245.779Z" fill="#111111"/><path d="M157.551 232.551L156.415 230.583L158.646 229.295C159.024 229.077 159.25 228.817 159.323 228.516C159.395 228.216 159.325 227.881 159.112 227.511C158.899 227.142 158.646 226.918 158.355 226.84C158.058 226.752 157.72 226.818 157.342 227.037L155.111 228.325L154.231 226.801L156.378 225.561C157.09 225.15 157.778 224.87 158.443 224.72C159.102 224.561 159.705 224.582 160.253 224.783C160.8 224.985 161.26 225.408 161.634 226.055L161.746 226.249C162.098 226.859 162.256 227.463 162.22 228.063C162.184 228.662 161.956 229.238 161.535 229.789C161.114 230.339 160.502 230.847 159.698 231.311L157.551 232.551ZM155.334 233.831L149.398 223.549L151.892 222.109L157.828 232.391L155.334 233.831ZM154.887 227.937L154.007 226.413L155.863 225.341C156.242 225.122 156.461 224.872 156.521 224.591C156.584 224.296 156.518 223.978 156.32 223.636C156.118 223.285 155.875 223.068 155.593 222.984C155.315 222.886 154.986 222.946 154.607 223.165L152.751 224.237L151.615 222.269L153.361 221.261C154.543 220.579 155.601 220.3 156.536 220.426C157.465 220.542 158.194 221.057 158.722 221.972L158.842 222.18C159.21 222.817 159.34 223.426 159.231 224.006C159.127 224.571 158.84 225.1 158.373 225.591C157.915 226.078 157.335 226.523 156.633 226.929L154.887 227.937ZM164.934 228.177L159.094 218.062L161.671 216.574L167.511 226.689L164.934 228.177ZM167.234 226.849L165.938 224.605L170.039 222.237L171.335 224.481L167.234 226.849ZM171.854 224.182L169.256 212.195L173.386 209.811L182.579 217.99L179.918 219.526L172.513 212.716L173.408 212.569L171.579 213.625L172.167 212.916L174.431 222.694L171.854 224.182ZM173.149 220.312L172.708 217.758L176.547 215.542L178.539 217.2L173.149 220.312ZM188.141 215.148C187.226 215.676 186.35 215.973 185.513 216.037C184.67 216.093 183.887 215.984 183.164 215.712C182.435 215.431 181.793 215.044 181.238 214.552C180.682 214.06 180.239 213.527 179.909 212.954L179.733 212.65C179.365 212.012 179.106 211.33 178.958 210.603C178.813 209.861 178.809 209.119 178.946 208.374C179.092 207.625 179.403 206.916 179.879 206.247C180.355 205.578 181.027 204.993 181.895 204.491C182.819 203.958 183.738 203.662 184.652 203.602C185.57 203.528 186.427 203.679 187.224 204.057C188.015 204.425 188.685 204.999 189.234 205.778L186.657 207.266C186.389 206.953 186.075 206.728 185.713 206.592C185.351 206.456 184.964 206.415 184.551 206.468C184.134 206.512 183.712 206.657 183.287 206.902C182.89 207.132 182.57 207.409 182.326 207.734C182.092 208.054 181.939 208.407 181.867 208.794C181.798 209.166 181.808 209.567 181.896 209.997C181.993 210.421 182.172 210.859 182.434 211.312C182.695 211.765 182.985 212.139 183.304 212.435C183.632 212.726 183.982 212.937 184.353 213.068C184.733 213.193 185.125 213.232 185.528 213.183C185.926 213.126 186.333 212.977 186.749 212.737C187.395 212.364 187.85 211.892 188.112 211.322C188.383 210.747 188.413 210.169 188.201 209.589L190.778 208.101C191.133 208.907 191.279 209.746 191.216 210.62C191.154 211.493 190.872 212.327 190.37 213.122C189.863 213.908 189.12 214.583 188.141 215.148ZM201.099 207.297L195.087 204.468L193.715 205.26L194.691 197.51L197.656 195.798L196.782 202.732L196.214 201.748L204.203 205.505L201.099 207.297ZM194.365 211.185L188.525 201.07L191.102 199.582L196.942 209.697L194.365 211.185Z" fill="#111111"/><path d="M212.887 200.492L207.047 190.377L208.405 189.593L214.245 199.708L212.887 200.492ZM211.367 195.364L210.663 194.145L214.993 191.627L215.697 192.847L211.367 195.364ZM208.831 190.972L208.127 189.753L212.7 187.113L213.404 188.332L208.831 190.972ZM220.64 196.015L214.768 185.845L216.126 185.061L221.998 195.231L220.64 196.015ZM226.89 192.407L220.936 189.84L222.53 188.92L228.538 191.455L226.89 192.407ZM219.374 191.869L218.678 190.664L221.393 189.096C221.818 188.85 222.133 188.552 222.336 188.2C222.54 187.849 222.636 187.473 222.627 187.072C222.612 186.662 222.489 186.258 222.26 185.861C222.031 185.464 221.745 185.161 221.403 184.952C221.055 184.734 220.678 184.625 220.272 184.625C219.861 184.617 219.442 184.735 219.017 184.98L216.302 186.548L215.614 185.357L218.08 183.933C218.819 183.506 219.53 183.243 220.212 183.145C220.894 183.047 221.521 183.141 222.093 183.427C222.664 183.712 223.16 184.22 223.582 184.95L223.71 185.172C224.131 185.902 224.318 186.588 224.271 187.231C224.233 187.869 224 188.459 223.574 189.001C223.157 189.537 222.579 190.018 221.84 190.445L219.374 191.869ZM230.37 190.398L224.53 180.283L225.888 179.499L231.728 189.614L230.37 190.398ZM235.813 187.329L235.093 186.082L237.614 184.626C238.224 184.274 238.708 183.865 239.068 183.399C239.431 182.919 239.677 182.407 239.807 181.864C239.946 181.316 239.967 180.755 239.871 180.183C239.774 179.61 239.569 179.052 239.254 178.507C238.923 177.934 238.537 177.467 238.095 177.107C237.647 176.737 237.154 176.48 236.615 176.335C236.08 176.176 235.519 176.143 234.932 176.236C234.354 176.323 233.76 176.543 233.15 176.895L230.629 178.351L229.909 177.103L232.292 175.727C233.206 175.199 234.083 174.884 234.923 174.781C235.757 174.669 236.535 174.725 237.256 174.949C237.98 175.159 238.624 175.496 239.187 175.959C239.745 176.413 240.2 176.945 240.552 177.554L240.728 177.859C241.069 178.45 241.3 179.105 241.419 179.825C241.539 180.544 241.511 181.274 241.336 182.016C241.17 182.752 240.835 183.463 240.331 184.148C239.822 184.824 239.11 185.425 238.196 185.953L235.813 187.329ZM234.732 187.953L228.828 177.727L230.186 176.943L236.09 187.169L234.732 187.953ZM244.255 182.381L242.059 170.162L244.359 168.834L253.954 176.781L252.555 177.589L243.832 170.321L244.689 170.27L243.054 171.214L243.569 170.473L245.613 181.597L244.255 182.381ZM244.686 178.105L244.439 176.621L248.804 174.101L249.966 175.057L244.686 178.105ZM254.652 171.132L247.869 166.808L249.283 165.992L255.055 169.717L254.44 169.868L256.075 168.924L255.609 169.397L255.103 162.632L256.433 161.864L256.98 169.788L254.652 171.132ZM257.423 174.779L254.991 170.566L256.321 169.798L258.753 174.011L257.423 174.779Z" fill="#111111"/><path d="M280.526 161.551L279.39 159.583L281.621 158.295C282 158.077 282.226 157.817 282.298 157.516C282.371 157.216 282.301 156.881 282.087 156.511C281.874 156.142 281.622 155.918 281.33 155.84C281.034 155.752 280.696 155.818 280.317 156.037L278.086 157.325L277.206 155.801L279.354 154.561C280.065 154.15 280.753 153.87 281.418 153.72C282.078 153.561 282.681 153.582 283.228 153.783C283.776 153.985 284.236 154.408 284.609 155.055L284.721 155.249C285.073 155.859 285.232 156.463 285.196 157.063C285.16 157.662 284.932 158.238 284.511 158.789C284.09 159.339 283.478 159.847 282.674 160.311L280.526 161.551ZM278.309 162.831L272.373 152.549L274.867 151.109L280.803 161.391L278.309 162.831ZM277.862 156.937L276.982 155.413L278.839 154.341C279.218 154.122 279.437 153.872 279.497 153.591C279.56 153.296 279.493 152.978 279.296 152.636C279.093 152.285 278.851 152.068 278.569 151.984C278.29 151.886 277.962 151.946 277.583 152.165L275.726 153.237L274.59 151.269L276.336 150.261C277.519 149.579 278.577 149.3 279.512 149.426C280.441 149.542 281.17 150.057 281.698 150.972L281.818 151.18C282.186 151.817 282.315 152.426 282.207 153.006C282.102 153.571 281.816 154.1 281.349 154.591C280.89 155.078 280.31 155.523 279.608 155.929L277.862 156.937ZM287.909 157.177L282.069 147.062L284.647 145.574L290.487 155.689L287.909 157.177ZM290.209 155.849L288.913 153.605L293.015 151.237L294.311 153.481L290.209 155.849ZM294.83 153.182L292.232 141.195L296.361 138.811L305.554 146.99L302.894 148.526L295.489 141.716L296.383 141.569L294.554 142.625L295.143 141.916L297.407 151.694L294.83 153.182ZM296.124 149.312L295.684 146.758L299.522 144.542L301.514 146.2L296.124 149.312ZM311.116 144.148C310.202 144.676 309.326 144.973 308.489 145.037C307.646 145.093 306.863 144.984 306.139 144.712C305.41 144.431 304.768 144.044 304.213 143.552C303.658 143.06 303.215 142.527 302.884 141.954L302.708 141.65C302.34 141.012 302.082 140.33 301.933 139.603C301.788 138.861 301.784 138.119 301.921 137.374C302.067 136.625 302.378 135.916 302.854 135.247C303.33 134.578 304.003 133.993 304.871 133.491C305.795 132.958 306.714 132.662 307.627 132.602C308.545 132.528 309.403 132.679 310.2 133.057C310.991 133.425 311.661 133.999 312.21 134.778L309.632 136.266C309.365 135.953 309.05 135.728 308.689 135.592C308.327 135.456 307.94 135.415 307.527 135.468C307.109 135.512 306.688 135.657 306.263 135.902C305.866 136.132 305.545 136.409 305.302 136.734C305.068 137.054 304.915 137.407 304.842 137.794C304.774 138.166 304.784 138.567 304.872 138.997C304.969 139.421 305.148 139.859 305.409 140.312C305.671 140.765 305.961 141.139 306.28 141.435C306.608 141.726 306.957 141.937 307.328 142.068C307.709 142.193 308.1 142.232 308.504 142.183C308.902 142.126 309.308 141.977 309.724 141.737C310.371 141.364 310.825 140.892 311.087 140.322C311.359 139.747 311.388 139.169 311.177 138.589L313.754 137.101C314.108 137.907 314.254 138.746 314.192 139.62C314.13 140.493 313.848 141.327 313.346 142.122C312.839 142.908 312.095 143.583 311.116 144.148ZM324.075 136.297L318.063 133.468L316.691 134.26L317.667 126.51L320.632 124.798L319.758 131.732L319.19 130.748L327.179 134.505L324.075 136.297ZM317.341 140.185L311.501 130.07L314.078 128.582L319.918 138.697L317.341 140.185Z" fill="#111111"/><path d="M335.862 129.492L330.022 119.377L331.38 118.593L337.22 128.708L335.862 129.492ZM334.343 124.364L333.639 123.145L337.968 120.627L338.672 121.847L334.343 124.364ZM331.807 119.972L331.103 118.753L335.676 116.113L336.38 117.332L331.807 119.972ZM343.616 125.015L337.744 114.845L339.102 114.061L344.974 124.231L343.616 125.015ZM349.865 121.407L343.912 118.84L345.505 117.92L351.514 120.455L349.865 121.407ZM342.349 120.869L341.653 119.664L344.369 118.096C344.794 117.85 345.108 117.552 345.312 117.2C345.515 116.849 345.612 116.473 345.602 116.072C345.587 115.662 345.465 115.258 345.236 114.861C345.006 114.464 344.721 114.161 344.378 113.952C344.031 113.734 343.654 113.625 343.248 113.625C342.836 113.617 342.418 113.735 341.993 113.98L339.277 115.548L338.589 114.357L341.056 112.933C341.795 112.506 342.505 112.243 343.187 112.145C343.87 112.047 344.497 112.141 345.068 112.427C345.64 112.712 346.136 113.22 346.557 113.95L346.685 114.172C347.107 114.902 347.294 115.588 347.246 116.231C347.208 116.869 346.976 117.459 346.55 118.001C346.133 118.537 345.555 119.018 344.816 119.445L342.349 120.869ZM353.346 119.398L347.506 109.283L348.864 108.499L354.704 118.614L353.346 119.398ZM358.788 116.329L358.068 115.082L360.59 113.626C361.2 113.274 361.684 112.865 362.043 112.399C362.406 111.919 362.653 111.407 362.783 110.864C362.922 110.316 362.943 109.755 362.846 109.183C362.75 108.61 362.544 108.052 362.23 107.507C361.899 106.934 361.513 106.467 361.07 106.107C360.623 105.737 360.13 105.48 359.591 105.335C359.055 105.176 358.494 105.143 357.907 105.236C357.329 105.323 356.736 105.543 356.126 105.895L353.604 107.351L352.884 106.103L355.267 104.727C356.182 104.199 357.059 103.884 357.899 103.781C358.733 103.669 359.511 103.725 360.231 103.949C360.956 104.159 361.6 104.496 362.163 104.959C362.721 105.413 363.175 105.945 363.527 106.554L363.703 106.859C364.045 107.45 364.275 108.105 364.395 108.825C364.514 109.544 364.487 110.274 364.311 111.016C364.145 111.752 363.81 112.463 363.307 113.148C362.798 113.824 362.086 114.425 361.171 114.953L358.788 116.329ZM357.707 116.953L351.803 106.727L353.161 105.943L359.065 116.169L357.707 116.953ZM367.23 111.381L365.035 99.1623L367.335 97.8343L376.93 105.781L375.53 106.589L366.808 99.3211L367.665 99.2696L366.03 100.214L366.544 99.4731L368.588 110.597L367.23 111.381ZM367.662 107.105L367.415 105.621L371.78 103.101L372.941 104.057L367.662 107.105ZM377.628 100.132L370.845 95.8076L372.258 94.9916L378.03 98.7167L377.416 98.8683L379.051 97.9243L378.585 98.3967L378.078 91.6316L379.408 90.8636L379.956 98.7875L377.628 100.132ZM380.399 103.779L377.967 99.5664L379.297 98.7984L381.729 103.011L380.399 103.779Z" fill="#111111"/><path d="M403.502 90.5509L402.366 88.5833L404.597 87.2953C404.975 87.0767 405.201 86.817 405.274 86.5163C405.347 86.2157 405.276 85.8806 405.063 85.5111C404.85 85.1416 404.597 84.9178 404.306 84.8397C404.009 84.7524 403.671 84.8181 403.293 85.0367L401.062 86.3247L400.182 84.8005L402.33 83.5605C403.041 83.1499 403.729 82.8696 404.394 82.7198C405.053 82.5607 405.657 82.5819 406.204 82.7832C406.751 82.9845 407.212 83.4085 407.585 84.0551L407.697 84.2491C408.049 84.8588 408.207 85.4634 408.171 86.0629C408.136 86.6624 407.907 87.2376 407.486 87.7885C407.066 88.3395 406.453 88.8469 405.65 89.3109L403.502 90.5509ZM401.285 91.8309L395.349 81.5495L397.843 80.1095L403.779 90.3909L401.285 91.8309ZM400.838 85.9368L399.958 84.4126L401.815 83.3406C402.193 83.1219 402.413 82.8722 402.472 82.5914C402.536 82.2961 402.469 81.9775 402.271 81.6358C402.069 81.2847 401.826 81.0675 401.544 80.9841C401.266 80.8861 400.937 80.9464 400.559 81.1651L398.702 82.2371L397.566 80.2695L399.312 79.2615C400.494 78.5788 401.553 78.3002 402.487 78.4257C403.417 78.542 404.145 79.0574 404.673 79.9719L404.793 80.1798C405.161 80.8171 405.291 81.4258 405.182 82.0058C405.078 82.5712 404.792 83.0997 404.324 83.5913C403.866 84.0776 403.286 84.5234 402.584 84.9288L400.838 85.9368ZM410.885 86.1775L405.045 76.0623L407.622 74.5743L413.462 84.6895L410.885 86.1775ZM413.185 84.8495L411.889 82.6048L415.991 80.2368L417.287 82.4815L413.185 84.8495ZM417.805 82.1821L415.208 70.1949L419.337 67.8109L428.53 75.9901L425.87 77.5261L418.465 70.7162L419.359 70.5693L417.53 71.6253L418.118 70.9162L420.382 80.6941L417.805 82.1821ZM419.1 78.3123L418.66 75.7581L422.498 73.5421L424.49 75.2003L419.1 78.3123ZM434.092 73.1485C433.177 73.6765 432.301 73.9728 431.464 74.0374C430.622 74.0927 429.839 73.9844 429.115 73.7124C428.386 73.4312 427.744 73.0445 427.189 72.5521C426.633 72.0598 426.191 71.5272 425.86 70.9545L425.684 70.6496C425.316 70.0123 425.057 69.33 424.909 68.603C424.764 67.8614 424.76 67.1186 424.897 66.3744C425.043 65.6249 425.354 64.9157 425.83 64.2468C426.306 63.5778 426.978 62.9927 427.846 62.4913C428.77 61.958 429.689 61.6615 430.603 61.6019C431.521 61.5277 432.378 61.6793 433.175 62.0568C433.967 62.4251 434.637 62.9989 435.185 63.7784L432.608 65.2664C432.341 64.9527 432.026 64.7279 431.664 64.5919C431.302 64.4559 430.915 64.4146 430.503 64.4681C430.085 64.5123 429.663 64.657 429.238 64.9024C428.841 65.1317 428.521 65.409 428.278 65.7342C428.044 66.0541 427.89 66.4074 427.818 66.794C427.75 67.1661 427.759 67.567 427.847 67.9966C427.944 68.4208 428.124 68.8593 428.385 69.3119C428.646 69.7646 428.936 70.139 429.255 70.4353C429.583 70.7262 429.933 70.937 430.304 71.0677C430.684 71.193 431.076 71.2316 431.479 71.1835C431.877 71.1262 432.284 70.9775 432.7 70.7375C433.346 70.3641 433.801 69.8924 434.063 69.3224C434.334 68.747 434.364 68.1693 434.152 67.5894L436.73 66.1014C437.084 66.9069 437.23 67.7464 437.168 68.6199C437.105 69.4934 436.823 70.3275 436.321 71.1222C435.814 71.9077 435.071 72.5832 434.092 73.1485ZM447.05 65.2973L441.038 62.4683L439.667 63.2603L440.642 55.5101L443.608 53.7981L442.733 60.7322L442.165 59.7484L450.154 63.5053L447.05 65.2973ZM440.316 69.1853L434.476 59.0701L437.053 57.5821L442.893 67.6973L440.316 69.1853Z" fill="#111111"/><path d="M458.838 58.4918L452.998 48.3766L454.356 47.5926L460.196 57.7078L458.838 58.4918ZM457.319 53.3645L456.615 52.1451L460.944 49.6273L461.648 50.8466L457.319 53.3645ZM454.783 48.972L454.079 47.7526L458.651 45.1126L459.355 46.332L454.783 48.972ZM466.591 54.0152L460.719 43.8446L462.077 43.0606L467.949 53.2312L466.591 54.0152ZM472.841 50.4072L466.887 47.8399L468.481 46.9199L474.49 49.4552L472.841 50.4072ZM465.325 49.8692L464.629 48.6636L467.345 47.0956C467.77 46.8503 468.084 46.5519 468.287 46.2004C468.491 45.8489 468.588 45.4727 468.578 45.0718C468.563 44.6618 468.441 44.2581 468.211 43.8609C467.982 43.4637 467.696 43.1606 467.354 42.9518C467.006 42.7337 466.629 42.6249 466.223 42.6254C465.812 42.6167 465.394 42.735 464.969 42.9803L462.253 44.5483L461.565 43.3566L464.031 41.9326C464.77 41.506 465.481 41.2435 466.163 41.1452C466.845 41.0469 467.472 41.1407 468.044 41.4266C468.615 41.7124 469.112 42.2203 469.533 42.95L469.661 43.1717C470.082 43.9015 470.269 44.588 470.222 45.2312C470.184 45.8691 469.951 46.4589 469.525 47.0006C469.108 47.537 468.53 48.0185 467.791 48.4452L465.325 49.8692ZM476.321 48.3977L470.481 38.2825L471.839 37.4985L477.679 47.6137L476.321 48.3977ZM481.764 45.3295L481.044 44.0824L483.566 42.6264C484.175 42.2744 484.66 41.8654 485.019 41.3994C485.382 40.9189 485.628 40.4071 485.758 39.864C485.897 39.3157 485.919 38.7553 485.822 38.1828C485.726 37.6104 485.52 37.0516 485.205 36.5066C484.875 35.9339 484.488 35.4672 484.046 35.1067C483.599 34.7369 483.105 34.4798 482.566 34.3353C482.031 34.1763 481.47 34.1431 480.883 34.2357C480.305 34.3229 479.711 34.5425 479.102 34.8945L476.58 36.3505L475.86 35.1035L478.243 33.7275C479.157 33.1995 480.035 32.884 480.874 32.781C481.709 32.6688 482.486 32.7249 483.207 32.9492C483.932 33.159 484.575 33.4955 485.138 33.9587C485.696 34.4127 486.151 34.9445 486.503 35.5542L486.679 35.859C487.02 36.4502 487.251 37.1054 487.37 37.8246C487.49 38.5439 487.462 39.2743 487.287 40.016C487.121 40.7523 486.786 41.463 486.282 42.1479C485.773 42.8236 485.061 43.4255 484.147 43.9535L481.764 45.3295ZM480.683 45.9535L474.779 35.7275L476.137 34.9435L482.041 45.1695L480.683 45.9535ZM490.206 40.3814L488.01 28.1623L490.31 26.8343L499.905 34.7814L498.506 35.5894L489.783 28.3211L490.64 28.2696L489.005 29.2136L489.52 28.4731L491.564 39.5974L490.206 40.3814ZM490.637 36.1047L490.391 34.6214L494.755 32.1014L495.917 33.0567L490.637 36.1047ZM500.603 29.1315L493.821 24.8076L495.234 23.9916L501.006 27.7167L500.391 27.8683L502.026 26.9243L501.56 27.3967L501.054 20.6316L502.384 19.8636L502.931 27.7875L500.603 29.1315ZM503.374 32.7787L500.942 28.5664L502.272 27.7984L504.704 32.0107L503.374 32.7787Z" fill="#111111"/></svg>