<svg width="410" height="277" fill="none" xmlns="http://www.w3.org/2000/svg"><rect width="600" height="30" transform="translate(-124.78 250.215) rotate(-30)" fill="#E9B100"/><path d="M-35.3692 221.688L-41.2092 211.573L-39.8513 210.789L-34.0113 220.904L-35.3692 221.688ZM-36.8884 216.561L-37.5924 215.341L-33.2634 212.823L-32.5594 214.043L-36.8884 216.561ZM-39.4244 212.168L-40.1284 210.949L-35.5558 208.309L-34.8518 209.528L-39.4244 212.168ZM-27.6156 217.211L-33.4876 207.041L-32.1297 206.257L-26.2577 216.427L-27.6156 217.211ZM-21.3664 213.603L-27.3196 211.036L-25.7261 210.116L-19.7174 212.651L-21.3664 213.603ZM-28.8824 213.065L-29.5784 211.86L-26.8625 210.292C-26.4376 210.046 -26.1234 209.748 -25.9198 209.396C-25.7163 209.045 -25.6194 208.669 -25.6292 208.268C-25.6442 207.858 -25.7664 207.454 -25.9958 207.057C-26.2251 206.66 -26.5109 206.357 -26.8532 206.148C-27.2008 205.93 -27.5777 205.821 -27.9838 205.821C-28.3954 205.813 -28.8136 205.931 -29.2385 206.176L-31.9544 207.744L-32.6424 206.553L-30.1759 205.129C-29.4369 204.702 -28.7263 204.44 -28.044 204.341C-27.3618 204.243 -26.7349 204.337 -26.1634 204.623C-25.5919 204.908 -25.0954 205.416 -24.6741 206.146L-24.5461 206.368C-24.1248 207.098 -23.9378 207.784 -23.9852 208.427C-24.0234 209.065 -24.2556 209.655 -24.6819 210.197C-25.0989 210.733 -25.6769 211.215 -26.4159 211.641L-28.8824 213.065ZM-17.8857 211.594L-23.7257 201.479L-22.3678 200.695L-16.5278 210.81L-17.8857 211.594ZM-12.4434 208.526L-13.1634 207.278L-10.6416 205.822C-10.0319 205.47 -9.54747 205.061 -9.18835 204.595C-8.82533 204.115 -8.57888 203.603 -8.44899 203.06C-8.30987 202.512 -8.28855 201.951 -8.38503 201.379C-8.48152 200.806 -8.68709 200.248 -9.00176 199.703C-9.33243 199.13 -9.71885 198.663 -10.161 198.303C-10.6085 197.933 -11.1019 197.676 -11.641 197.531C-12.1762 197.372 -12.7373 197.339 -13.3244 197.432C-13.9021 197.519 -14.4959 197.739 -15.1056 198.091L-17.6274 199.547L-18.3474 198.299L-15.9641 196.923C-15.0496 196.395 -14.1725 196.08 -13.3328 195.977C-12.4985 195.865 -11.7209 195.921 -11.0002 196.145C-10.2755 196.355 -9.63171 196.692 -9.06867 197.155C-8.51097 197.609 -8.05612 198.141 -7.70412 198.75L-7.52812 199.055C-7.18679 199.646 -6.9563 200.301 -6.83667 201.021C-6.71704 201.74 -6.74488 202.47 -6.92019 203.212C-7.08626 203.948 -7.42114 204.659 -7.92482 205.344C-8.43383 206.02 -9.14559 206.622 -10.0601 207.15L-12.4434 208.526ZM-13.5242 209.15L-19.4282 198.923L-18.0703 198.139L-12.1663 208.366L-13.5242 209.15ZM-4.00114 203.577L-6.19691 191.358L-3.89675 190.03L5.69834 197.977L4.29884 198.785L-4.42398 191.517L-3.56687 191.466L-5.20193 192.41L-4.68725 191.669L-2.64322 202.793L-4.00114 203.577ZM-3.56969 199.301L-3.81643 197.817L0.548341 195.297L1.7096 196.253L-3.56969 199.301ZM6.39627 192.328L-0.386421 188.004L1.02693 187.188L6.79879 190.913L6.18425 191.064L7.8193 190.12L7.35304 190.593L6.84662 183.828L8.17684 183.06L8.72414 190.984L6.39627 192.328ZM9.1671 195.975L6.7351 191.762L8.06531 190.994L10.4973 195.207L9.1671 195.975Z" fill="#111111"/><path d="M32.2703 182.747L31.1343 180.779L33.3652 179.491C33.7439 179.273 33.9697 179.013 34.0424 178.712C34.1152 178.412 34.0449 178.077 33.8316 177.707C33.6182 177.338 33.3659 177.114 33.0744 177.036C32.7777 176.948 32.4399 177.014 32.0612 177.233L29.8303 178.521L28.9503 176.997L31.0981 175.757C31.8094 175.346 32.4974 175.066 33.1622 174.916C33.8217 174.757 34.4251 174.778 34.9725 174.979C35.5198 175.181 35.9801 175.605 36.3534 176.251L36.4654 176.445C36.8174 177.055 36.9756 177.659 36.9399 178.259C36.9042 178.858 36.6759 179.434 36.255 179.985C35.834 180.536 35.2217 181.043 34.4181 181.507L32.2703 182.747ZM30.0533 184.027L24.1173 173.746L26.6114 172.306L32.5474 182.587L30.0533 184.027ZM29.6063 178.133L28.7263 176.609L30.5831 175.537C30.9618 175.318 31.181 175.068 31.2406 174.787C31.3041 174.492 31.2372 174.174 31.0399 173.832C30.8372 173.481 30.5948 173.264 30.3126 173.18C30.0343 173.082 29.7058 173.142 29.3271 173.361L27.4703 174.433L26.3343 172.466L28.0802 171.458C29.2626 170.775 30.3212 170.496 31.2558 170.622C32.1851 170.738 32.9137 171.253 33.4417 172.168L33.5617 172.376C33.9297 173.013 34.0595 173.622 33.9509 174.202C33.8463 174.767 33.5602 175.296 33.0927 175.787C32.6344 176.274 32.0543 176.719 31.3522 177.125L29.6063 178.133ZM39.6534 178.374L33.8134 168.258L36.3906 166.77L42.2306 176.886L39.6534 178.374ZM41.9535 177.046L40.6575 174.801L44.759 172.433L46.055 174.678L41.9535 177.046ZM46.5737 174.378L43.9761 162.391L48.1053 160.007L57.2985 168.186L54.6381 169.722L47.2331 162.912L48.1275 162.765L46.2984 163.821L46.8867 163.112L49.1509 172.89L46.5737 174.378ZM47.8682 170.508L47.4282 167.954L51.2664 165.738L53.2584 167.396L47.8682 170.508ZM62.8602 165.345C61.9457 165.873 61.0699 166.169 60.2327 166.233C59.3901 166.289 58.607 166.18 57.8835 165.908C57.1545 165.627 56.5124 165.24 55.9572 164.748C55.402 164.256 54.959 163.723 54.6284 163.151L54.4524 162.846C54.0844 162.208 53.826 161.526 53.6772 160.799C53.5323 160.057 53.5284 159.315 53.6653 158.57C53.8115 157.821 54.1225 157.112 54.5985 156.443C55.0745 155.774 55.7466 155.189 56.615 154.687C57.5387 154.154 58.4576 153.858 59.3715 153.798C60.2894 153.724 61.1468 153.875 61.9436 154.253C62.7351 154.621 63.4051 155.195 63.9537 155.974L61.3764 157.462C61.1091 157.149 60.7945 156.924 60.4327 156.788C60.0709 156.652 59.6837 156.611 59.2712 156.664C58.8533 156.708 58.4319 156.853 58.007 157.098C57.6097 157.328 57.2895 157.605 57.0462 157.93C56.8121 158.25 56.6589 158.603 56.5865 158.99C56.518 159.362 56.5277 159.763 56.6157 160.193C56.7128 160.617 56.892 161.055 57.1534 161.508C57.4147 161.961 57.7048 162.335 58.0237 162.631C58.3517 162.922 58.7013 163.133 59.0723 163.264C59.4526 163.389 59.8444 163.428 60.2477 163.38C60.6457 163.322 61.0525 163.174 61.4682 162.934C62.1149 162.56 62.5692 162.088 62.8313 161.518C63.1026 160.943 63.1324 160.365 62.9208 159.785L65.4981 158.297C65.8523 159.103 65.9983 159.942 65.936 160.816C65.8738 161.689 65.5917 162.524 65.0898 163.318C64.5826 164.104 63.8394 164.779 62.8602 165.345ZM75.8189 157.493L69.8069 154.664L68.4352 155.456L69.4108 147.706L72.3761 145.994L71.502 152.928L70.934 151.944L78.9227 155.701L75.8189 157.493ZM69.0847 161.381L63.2447 151.266L65.822 149.778L71.662 159.893L69.0847 161.381Z" fill="#111111"/><path d="M87.6064 150.688L81.7664 140.573L83.1243 139.789L88.9643 149.904L87.6064 150.688ZM86.0872 145.561L85.3832 144.341L89.7122 141.823L90.4162 143.043L86.0872 145.561ZM83.5512 141.168L82.8472 139.949L87.4198 137.309L88.1238 138.528L83.5512 141.168ZM95.36 146.211L89.488 136.041L90.8459 135.257L96.7179 145.427L95.36 146.211ZM101.609 142.603L95.656 140.036L97.2495 139.116L103.258 141.651L101.609 142.603ZM94.0932 142.065L93.3972 140.86L96.1131 139.292C96.538 139.046 96.8522 138.748 97.0557 138.396C97.2592 138.045 97.3561 137.669 97.3464 137.268C97.3314 136.858 97.2092 136.454 96.9798 136.057C96.7505 135.66 96.4647 135.357 96.1224 135.148C95.7748 134.93 95.3979 134.821 94.9917 134.821C94.5802 134.813 94.162 134.931 93.7371 135.176L91.0212 136.744L90.3332 135.553L92.7997 134.129C93.5387 133.702 94.2493 133.44 94.9316 133.341C95.6138 133.243 96.2407 133.337 96.8122 133.623C97.3837 133.908 97.8801 134.416 98.3015 135.146L98.4295 135.368C98.8508 136.098 99.0378 136.784 98.9904 137.427C98.9522 138.065 98.72 138.655 98.2937 139.197C97.8767 139.733 97.2987 140.215 96.5597 140.641L94.0932 142.065ZM105.09 140.594L99.2499 130.479L100.608 129.695L106.448 139.81L105.09 140.594ZM110.532 137.526L109.812 136.278L112.334 134.822C112.944 134.47 113.428 134.061 113.787 133.595C114.15 133.115 114.397 132.603 114.527 132.06C114.666 131.512 114.687 130.951 114.591 130.379C114.494 129.806 114.288 129.248 113.974 128.703C113.643 128.13 113.257 127.663 112.815 127.303C112.367 126.933 111.874 126.676 111.335 126.531C110.799 126.372 110.238 126.339 109.651 126.432C109.073 126.519 108.48 126.739 107.87 127.091L105.348 128.547L104.628 127.299L107.011 125.923C107.926 125.395 108.803 125.08 109.643 124.977C110.477 124.865 111.255 124.921 111.975 125.145C112.7 125.355 113.344 125.692 113.907 126.155C114.465 126.609 114.919 127.141 115.271 127.75L115.447 128.055C115.789 128.646 116.019 129.301 116.139 130.021C116.259 130.74 116.231 131.47 116.055 132.212C115.889 132.948 115.554 133.659 115.051 134.344C114.542 135.02 113.83 135.622 112.915 136.15L110.532 137.526ZM109.451 138.15L103.547 127.923L104.905 127.139L110.809 137.366L109.451 138.15ZM118.974 132.577L116.779 120.358L119.079 119.03L128.674 126.977L127.274 127.785L118.552 120.517L119.409 120.466L117.774 121.41L118.288 120.669L120.332 131.793L118.974 132.577ZM119.406 128.301L119.159 126.817L123.524 124.297L124.685 125.253L119.406 128.301ZM129.372 121.328L122.589 117.004L124.003 116.188L129.774 119.913L129.16 120.064L130.795 119.12L130.329 119.593L129.822 112.828L131.152 112.06L131.7 119.984L129.372 121.328ZM132.143 124.975L129.711 120.762L131.041 119.994L133.473 124.207L132.143 124.975Z" fill="#111111"/><path d="M155.246 111.747L154.11 109.779L156.341 108.491C156.72 108.273 156.945 108.013 157.018 107.712C157.091 107.412 157.021 107.077 156.807 106.707C156.594 106.338 156.342 106.114 156.05 106.036C155.753 105.948 155.416 106.014 155.037 106.233L152.806 107.521L151.926 105.997L154.074 104.757C154.785 104.346 155.473 104.066 156.138 103.916C156.797 103.757 157.401 103.778 157.948 103.979C158.495 104.181 158.956 104.605 159.329 105.251L159.441 105.445C159.793 106.055 159.951 106.659 159.916 107.259C159.88 107.858 159.652 108.434 159.231 108.985C158.81 109.536 158.197 110.043 157.394 110.507L155.246 111.747ZM153.029 113.027L147.093 102.746L149.587 101.306L155.523 111.587L153.029 113.027ZM152.582 107.133L151.702 105.609L153.559 104.537C153.937 104.318 154.157 104.068 154.216 103.787C154.28 103.492 154.213 103.174 154.016 102.832C153.813 102.481 153.57 102.264 153.288 102.18C153.01 102.082 152.681 102.142 152.303 102.361L150.446 103.433L149.31 101.466L151.056 100.458C152.238 99.7749 153.297 99.4963 154.231 99.6218C155.161 99.738 155.889 100.253 156.417 101.168L156.537 101.376C156.905 102.013 157.035 102.622 156.927 103.202C156.822 103.767 156.536 104.296 156.068 104.787C155.61 105.274 155.03 105.719 154.328 106.125L152.582 107.133ZM162.629 107.374L156.789 97.2584L159.366 95.7704L165.206 105.886L162.629 107.374ZM164.929 106.046L163.633 103.801L167.735 101.433L169.031 103.678L164.929 106.046ZM169.549 103.378L166.952 91.3909L171.081 89.0069L180.274 97.1861L177.614 98.7221L170.209 91.9123L171.103 91.7654L169.274 92.8214L169.862 92.1123L172.127 101.89L169.549 103.378ZM170.844 99.5084L170.404 96.9542L174.242 94.7382L176.234 96.3964L170.844 99.5084ZM185.836 94.3445C184.921 94.8725 184.046 95.1688 183.208 95.2334C182.366 95.2888 181.583 95.1805 180.859 94.9085C180.13 94.6273 179.488 94.2405 178.933 93.7482C178.378 93.2558 177.935 92.7233 177.604 92.1505L177.428 91.8457C177.06 91.2083 176.802 90.5261 176.653 89.7991C176.508 89.0575 176.504 88.3146 176.641 87.5705C176.787 86.821 177.098 86.1117 177.574 85.4428C178.05 84.7739 178.722 84.1887 179.591 83.6874C180.514 83.1541 181.433 82.8576 182.347 82.7979C183.265 82.7237 184.122 82.8754 184.919 83.2529C185.711 83.6211 186.381 84.195 186.929 84.9745L184.352 86.4625C184.085 86.1488 183.77 85.9239 183.408 85.7879C183.047 85.652 182.659 85.6107 182.247 85.6641C181.829 85.7083 181.408 85.8531 180.983 86.0984C180.585 86.3277 180.265 86.605 180.022 86.9303C179.788 87.2502 179.635 87.6034 179.562 87.9901C179.494 88.3622 179.503 88.763 179.591 89.1926C179.688 89.6169 179.868 90.0553 180.129 90.508C180.39 90.9606 180.68 91.3351 180.999 91.6313C181.327 91.9223 181.677 92.1331 182.048 92.2637C182.428 92.389 182.82 92.4276 183.223 92.3795C183.621 92.3222 184.028 92.1735 184.444 91.9335C185.091 91.5602 185.545 91.0885 185.807 90.5184C186.078 89.943 186.108 89.3654 185.896 88.7855L188.474 87.2975C188.828 88.103 188.974 88.9424 188.912 89.8159C188.849 90.6894 188.567 91.5235 188.065 92.3183C187.558 93.1038 186.815 93.7792 185.836 94.3445ZM198.795 86.4933L192.783 83.6643L191.411 84.4563L192.386 76.7062L195.352 74.9942L194.478 81.9282L193.91 80.9444L201.898 84.7013L198.795 86.4933ZM192.06 90.3813L186.22 80.2662L188.798 78.7782L194.638 88.8933L192.06 90.3813Z" fill="#111111"/><path d="M210.582 79.6878L204.742 69.5727L206.1 68.7887L211.94 78.9038L210.582 79.6878ZM209.063 74.5605L208.359 73.3412L212.688 70.8233L213.392 72.0427L209.063 74.5605ZM206.527 70.168L205.823 68.9487L210.395 66.3087L211.099 67.528L206.527 70.168ZM218.336 75.2113L212.464 65.0407L213.822 64.2567L219.694 74.4273L218.336 75.2113ZM224.585 71.6033L218.632 69.036L220.225 68.116L226.234 70.6513L224.585 71.6033ZM217.069 71.0652L216.373 69.8597L219.089 68.2917C219.514 68.0464 219.828 67.7479 220.031 67.3964C220.235 67.0449 220.332 66.6687 220.322 66.2679C220.307 65.8578 220.185 65.4542 219.955 65.0569C219.726 64.6597 219.44 64.3567 219.098 64.1479C218.75 63.9298 218.374 63.821 217.967 63.8215C217.556 63.8127 217.138 63.931 216.713 64.1763L213.997 65.7443L213.309 64.5527L215.775 63.1287C216.514 62.702 217.225 62.4395 217.907 62.3412C218.589 62.2429 219.216 62.3367 219.788 62.6226C220.359 62.9085 220.856 63.4163 221.277 64.1461L221.405 64.3678C221.826 65.0976 222.013 65.7841 221.966 66.4273C221.928 67.0651 221.696 67.6549 221.269 68.1966C220.852 68.733 220.274 69.2145 219.535 69.6412L217.069 71.0652ZM228.066 69.5937L222.226 59.4785L223.583 58.6945L229.423 68.8097L228.066 69.5937ZM233.508 66.5255L232.788 65.2784L235.31 63.8224C235.919 63.4704 236.404 63.0615 236.763 62.5955C237.126 62.1149 237.372 61.6031 237.502 61.0601C237.641 60.5117 237.663 59.9513 237.566 59.3789C237.47 58.8064 237.264 58.2477 236.949 57.7027C236.619 57.1299 236.232 56.6633 235.79 56.3027C235.343 55.933 234.849 55.6758 234.31 55.5314C233.775 55.3723 233.214 55.3391 232.627 55.4317C232.049 55.5189 231.455 55.7386 230.846 56.0906L228.324 57.5466L227.604 56.2995L229.987 54.9235C230.902 54.3955 231.779 54.08 232.618 53.977C233.453 53.8648 234.23 53.9209 234.951 54.1453C235.676 54.3551 236.32 54.6916 236.883 55.1548C237.44 55.6087 237.895 56.1406 238.247 56.7502L238.423 57.0551C238.764 57.6463 238.995 58.3015 239.115 59.0207C239.234 59.7399 239.206 60.4703 239.031 61.212C238.865 61.9484 238.53 62.659 238.026 63.344C237.517 64.0197 236.806 64.6215 235.891 65.1495L233.508 66.5255ZM232.427 67.1495L226.523 56.9235L227.881 56.1395L233.785 66.3655L232.427 67.1495ZM241.95 61.5775L239.754 49.3583L242.054 48.0303L251.65 55.9775L250.25 56.7855L241.527 49.5171L242.384 49.4657L240.749 50.4097L241.264 49.6691L243.308 60.7935L241.95 61.5775ZM242.382 57.3008L242.135 55.8174L246.5 53.2974L247.661 54.2528L242.382 57.3008ZM252.347 50.3276L245.565 46.0036L246.978 45.1876L252.75 48.9128L252.135 49.0643L253.771 48.1203L253.304 48.5928L252.798 41.8276L254.128 41.0596L254.675 48.9836L252.347 50.3276ZM255.118 53.9748L252.686 49.7624L254.017 48.9944L256.449 53.2068L255.118 53.9748Z" fill="#111111"/><path d="M278.222 40.747L277.086 38.7794L279.316 37.4914C279.695 37.2727 279.921 37.013 279.994 36.7124C280.066 36.4117 279.996 36.0767 279.783 35.7072C279.569 35.3376 279.317 35.1139 279.026 35.0358C278.729 34.9484 278.391 35.0141 278.012 35.2328L275.782 36.5208L274.902 34.9966L277.049 33.7566C277.761 33.3459 278.449 33.0657 279.113 32.9159C279.773 32.7568 280.376 32.7779 280.924 32.9792C281.471 33.1805 281.931 33.6045 282.305 34.2512L282.417 34.4451C282.769 35.0548 282.927 35.6594 282.891 36.2589C282.855 36.8584 282.627 37.4336 282.206 37.9846C281.785 38.5355 281.173 39.043 280.369 39.507L278.222 40.747ZM276.005 42.027L270.069 31.7455L272.563 30.3055L278.499 40.587L276.005 42.027ZM275.558 36.1328L274.678 34.6086L276.534 33.5366C276.913 33.3179 277.132 33.0682 277.192 32.7875C277.255 32.4921 277.188 32.1736 276.991 31.8318C276.788 31.4808 276.546 31.2635 276.264 31.1801C275.986 31.0821 275.657 31.1425 275.278 31.3611L273.422 32.4331L272.286 30.4655L274.031 29.4575C275.214 28.7749 276.272 28.4963 277.207 28.6218C278.136 28.738 278.865 29.2534 279.393 30.168L279.513 30.3758C279.881 31.0132 280.011 31.6219 279.902 32.2019C279.797 32.7673 279.511 33.2958 279.044 33.7874C278.586 34.2737 278.006 34.7195 277.303 35.1248L275.558 36.1328ZM285.605 36.3735L279.765 26.2584L282.342 24.7704L288.182 34.8855L285.605 36.3735ZM287.905 35.0455L286.609 32.8008L290.71 30.4328L292.006 32.6775L287.905 35.0455ZM292.525 32.3781L289.927 20.3909L294.056 18.0069L303.25 26.1861L300.589 27.7221L293.184 20.9123L294.079 20.7654L292.25 21.8214L292.838 21.1123L295.102 30.8901L292.525 32.3781ZM293.819 28.5084L293.379 25.9542L297.218 23.7382L299.21 25.3964L293.819 28.5084ZM308.811 23.3445C307.897 23.8725 307.021 24.1688 306.184 24.2334C305.341 24.2888 304.558 24.1805 303.835 23.9085C303.106 23.6273 302.464 23.2405 301.908 22.7482C301.353 22.2558 300.91 21.7233 300.58 21.1505L300.404 20.8457C300.036 20.2083 299.777 19.5261 299.628 18.7991C299.484 18.0575 299.48 17.3146 299.617 16.5705C299.763 15.821 300.074 15.1117 300.55 14.4428C301.026 13.7739 301.698 13.1887 302.566 12.6874C303.49 12.1541 304.409 11.8576 305.323 11.7979C306.241 11.7237 307.098 11.8754 307.895 12.2529C308.686 12.6211 309.356 13.195 309.905 13.9745L307.328 15.4625C307.06 15.1488 306.746 14.9239 306.384 14.7879C306.022 14.652 305.635 14.6107 305.222 14.6641C304.805 14.7083 304.383 14.8531 303.958 15.0984C303.561 15.3277 303.241 15.605 302.997 15.9303C302.763 16.2502 302.61 16.6034 302.538 16.9901C302.469 17.3622 302.479 17.763 302.567 18.1926C302.664 18.6169 302.843 19.0553 303.105 19.508C303.366 19.9606 303.656 20.3351 303.975 20.6313C304.303 20.9223 304.653 21.1331 305.024 21.2637C305.404 21.389 305.796 21.4276 306.199 21.3795C306.597 21.3222 307.004 21.1735 307.419 20.9335C308.066 20.5602 308.52 20.0885 308.783 19.5184C309.054 18.943 309.084 18.3654 308.872 17.7855L311.449 16.2975C311.804 17.103 311.95 17.9424 311.887 18.8159C311.825 19.6894 311.543 20.5235 311.041 21.3183C310.534 22.1038 309.791 22.7792 308.811 23.3445ZM321.77 15.4933L315.758 12.6643L314.386 13.4563L315.362 5.70617L318.327 3.99417L317.453 10.9282L316.885 9.9444L324.874 13.7013L321.77 15.4933ZM315.036 19.3813L309.196 9.26617L311.773 7.77817L317.613 17.8933L315.036 19.3813Z" fill="#111111"/><path d="M333.558 8.68785L327.718 -1.42733L329.076 -2.21133L334.916 7.90385L333.558 8.68785ZM332.038 3.56052L331.334 2.34115L335.663 -0.176703L336.367 1.04266L332.038 3.56052ZM329.502 -0.831964L328.798 -2.05133L333.371 -4.69133L334.075 -3.47196L329.502 -0.831964ZM341.311 4.21129L335.439 -5.95932L336.797 -6.74332L342.669 3.42729L341.311 4.21129ZM347.56 0.603287L341.607 -1.96405L343.201 -2.88405L349.209 -0.348713L347.56 0.603287ZM340.044 0.0651958L339.348 -1.14031L342.064 -2.70831C342.489 -2.95365 342.803 -3.25207 343.007 -3.60358C343.211 -3.9551 343.307 -4.33128 343.298 -4.73212C343.283 -5.1422 343.16 -5.54584 342.931 -5.94306C342.702 -6.34028 342.416 -6.64331 342.074 -6.85215C341.726 -7.07023 341.349 -7.17902 340.943 -7.17854C340.531 -7.18729 340.113 -7.069 339.688 -6.82366L336.972 -5.25566L336.284 -6.44732L338.751 -7.87132C339.49 -8.29798 340.201 -8.56046 340.883 -8.65876C341.565 -8.75706 342.192 -8.66327 342.763 -8.37739C343.335 -8.09151 343.831 -7.58368 344.253 -6.85391L344.381 -6.63221C344.802 -5.90244 344.989 -5.21595 344.942 -4.57273C344.903 -3.93485 344.671 -3.34506 344.245 -2.80336C343.828 -2.26699 343.25 -1.78547 342.511 -1.3588L340.044 0.0651958ZM351.041 -1.40628L345.201 -11.5215L346.559 -12.3055L352.399 -2.19028L351.041 -1.40628ZM356.483 -4.47447L355.763 -5.72155L358.285 -7.17755C358.895 -7.52955 359.379 -7.93855 359.738 -8.40454C360.102 -8.8851 360.348 -9.39689 360.478 -9.93992C360.617 -10.4883 360.638 -11.0487 360.542 -11.6211C360.445 -12.1936 360.24 -12.7523 359.925 -13.2973C359.594 -13.8701 359.208 -14.3367 358.766 -14.6973C358.318 -15.067 357.825 -15.3242 357.286 -15.4686C356.751 -15.6277 356.19 -15.6609 355.602 -15.5683C355.025 -15.4811 354.431 -15.2614 353.821 -14.9094L351.299 -13.4534L350.579 -14.7005L352.963 -16.0765C353.877 -16.6045 354.754 -16.92 355.594 -17.023C356.428 -17.1352 357.206 -17.0791 357.927 -16.8547C358.651 -16.6449 359.295 -16.3084 359.858 -15.8452C360.416 -15.3913 360.871 -14.8594 361.223 -14.2498L361.399 -13.9449C361.74 -13.3537 361.971 -12.6985 362.09 -11.9793C362.21 -11.2601 362.182 -10.5297 362.007 -9.78796C361.841 -9.05161 361.506 -8.34096 361.002 -7.65602C360.493 -6.98032 359.781 -6.37847 358.867 -5.85047L356.483 -4.47447ZM355.403 -3.85047L349.499 -14.0765L350.857 -14.8605L356.761 -4.63447L355.403 -3.85047ZM364.926 -9.42253L362.73 -21.6417L365.03 -22.9697L374.625 -15.0225L373.226 -14.2145L364.503 -21.4829L365.36 -21.5343L363.725 -20.5903L364.24 -21.3309L366.284 -10.2065L364.926 -9.42253ZM365.357 -13.6992L365.11 -15.1826L369.475 -17.7026L370.636 -16.7472L365.357 -13.6992ZM375.323 -20.6724L368.54 -24.9964L369.954 -25.8124L375.726 -22.0872L375.111 -21.9357L376.746 -22.8797L376.28 -22.4072L375.773 -29.1724L377.104 -29.9404L377.651 -22.0164L375.323 -20.6724ZM378.094 -17.0252L375.662 -21.2376L376.992 -22.0056L379.424 -17.7932L378.094 -17.0252Z" fill="#111111"/></svg>