<svg width="72" height="72" viewBox="0 0 72 72" fill="none" xmlns="http://www.w3.org/2000/svg">
<path opacity="0.2" d="M42.075 40.3341L44.3447 49.5L36 44.5894L27.6553 49.5L29.925 40.3341L22.5 34.2028L32.2453 33.4519L36 24.75L39.7547 33.4519L49.5 34.2028L42.075 40.3341Z" fill="#E9B100"/>
<path d="M58.5 9H51.75V6.75C51.75 6.15326 51.5129 5.58097 51.091 5.15901C50.669 4.73705 50.0967 4.5 49.5 4.5C48.9033 4.5 48.331 4.73705 47.909 5.15901C47.4871 5.58097 47.25 6.15326 47.25 6.75V9H24.75V6.75C24.75 6.15326 24.5129 5.58097 24.091 5.15901C23.669 4.73705 23.0967 4.5 22.5 4.5C21.9033 4.5 21.331 4.73705 20.909 5.15901C20.4871 5.58097 20.25 6.15326 20.25 6.75V9H13.5C12.3065 9 11.1619 9.47411 10.318 10.318C9.47411 11.1619 9 12.3065 9 13.5V58.5C9 59.6935 9.47411 60.8381 10.318 61.682C11.1619 62.5259 12.3065 63 13.5 63H58.5C59.6935 63 60.8381 62.5259 61.682 61.682C62.5259 60.8381 63 59.6935 63 58.5V13.5C63 12.3065 62.5259 11.1619 61.682 10.318C60.8381 9.47411 59.6935 9 58.5 9ZM58.5 58.5H13.5V13.5H20.25V15.75C20.25 16.3467 20.4871 16.919 20.909 17.341C21.331 17.7629 21.9033 18 22.5 18C23.0967 18 23.669 17.7629 24.091 17.341C24.5129 16.919 24.75 16.3467 24.75 15.75V13.5H47.25V15.75C47.25 16.3467 47.4871 16.919 47.909 17.341C48.331 17.7629 48.9033 18 49.5 18C50.0967 18 50.669 17.7629 51.091 17.341C51.5129 16.919 51.75 16.3467 51.75 15.75V13.5H58.5V58.5ZM49.6744 31.9613L41.2819 31.3116L38.0672 23.8584C37.8935 23.4542 37.6051 23.1098 37.2377 22.8678C36.8703 22.6258 36.44 22.4968 36 22.4968C35.56 22.4968 35.1297 22.6258 34.7623 22.8678C34.3949 23.1098 34.1065 23.4542 33.9328 23.8584L30.7181 31.3116L22.3256 31.9613C21.879 31.9965 21.453 32.1642 21.1023 32.443C20.7516 32.7218 20.4921 33.0989 20.3571 33.5261C20.222 33.9533 20.2176 34.411 20.3443 34.8408C20.4711 35.2705 20.7232 35.6526 21.0684 35.9381L27.4022 41.1666L25.4728 48.96C25.3671 49.3897 25.3903 49.841 25.5398 50.2576C25.6892 50.6741 25.9582 51.0373 26.313 51.3018C26.6678 51.5662 27.0927 51.7202 27.5346 51.7444C27.9764 51.7686 28.4156 51.6619 28.7972 51.4378L36 47.1994L43.2028 51.4378C43.5844 51.6619 44.0236 51.7686 44.4654 51.7444C44.9073 51.7202 45.3322 51.5662 45.687 51.3018C46.0418 51.0373 46.3108 50.6741 46.4602 50.2576C46.6097 49.841 46.6329 49.3897 46.5272 48.96L44.5978 41.1666L50.9316 35.9381C51.2768 35.6526 51.5289 35.2705 51.6557 34.8408C51.7824 34.411 51.778 33.9533 51.6429 33.5261C51.5079 33.0989 51.2484 32.7218 50.8977 32.443C50.547 32.1642 50.121 31.9965 49.6744 31.9613ZM40.6434 38.5988C40.3161 38.8684 40.0717 39.2251 39.9384 39.6277C39.805 40.0303 39.7881 40.4623 39.8897 40.8741L40.8741 44.8453L37.1419 42.6488C36.7958 42.4449 36.4016 42.3375 36 42.3375C35.5984 42.3375 35.2042 42.4449 34.8581 42.6488L31.1259 44.8453L32.1103 40.8741C32.2119 40.4623 32.195 40.0303 32.0616 39.6277C31.9283 39.2251 31.6839 38.8684 31.3566 38.5988L28.2319 36.0169L32.4197 35.6934C32.8282 35.6621 33.2204 35.5198 33.554 35.2819C33.8875 35.0439 34.1498 34.7195 34.3125 34.3434L36 30.4284L37.6875 34.3434C37.8502 34.7195 38.1125 35.0439 38.446 35.2819C38.7796 35.5198 39.1718 35.6621 39.5803 35.6934L43.7681 36.0169L40.6434 38.5988Z" fill="#E9B100"/>
</svg>
