<svg width="72" height="72" fill="none" xmlns="http://www.w3.org/2000/svg"><path opacity="0.2" d="M60.75 13.5V24.75H11.25V13.5C11.25 12.9033 11.4871 12.331 11.909 11.909C12.331 11.4871 12.9033 11.25 13.5 11.25H58.5C59.0967 11.25 59.669 11.4871 60.091 11.909C60.5129 12.331 60.75 12.9033 60.75 13.5Z" fill="#E9B100"/><path d="M58.5 9H51.75V6.75C51.75 6.15326 51.5129 5.58097 51.091 5.15901C50.669 4.73705 50.0967 4.5 49.5 4.5C48.9033 4.5 48.331 4.73705 47.909 5.15901C47.4871 5.58097 47.25 6.15326 47.25 6.75V9H24.75V6.75C24.75 6.15326 24.5129 5.58097 24.091 5.15901C23.669 4.73705 23.0967 4.5 22.5 4.5C21.9033 4.5 21.331 4.73705 20.909 5.15901C20.4871 5.58097 20.25 6.15326 20.25 6.75V9H13.5C12.3065 9 11.1619 9.47411 10.318 10.318C9.47411 11.1619 9 12.3065 9 13.5V58.5C9 59.6935 9.47411 60.8381 10.318 61.682C11.1619 62.5259 12.3065 63 13.5 63H58.5C59.6935 63 60.8381 62.5259 61.682 61.682C62.5259 60.8381 63 59.6935 63 58.5V13.5C63 12.3065 62.5259 11.1619 61.682 10.318C60.8381 9.47411 59.6935 9 58.5 9ZM20.25 13.5V15.75C20.25 16.3467 20.4871 16.919 20.909 17.341C21.331 17.7629 21.9033 18 22.5 18C23.0967 18 23.669 17.7629 24.091 17.341C24.5129 16.919 24.75 16.3467 24.75 15.75V13.5H47.25V15.75C47.25 16.3467 47.4871 16.919 47.909 17.341C48.331 17.7629 48.9033 18 49.5 18C50.0967 18 50.669 17.7629 51.091 17.341C51.5129 16.919 51.75 16.3467 51.75 15.75V13.5H58.5V22.5H13.5V13.5H20.25ZM58.5 58.5H13.5V27H58.5V58.5ZM47.7169 34.4081C47.9261 34.6171 48.092 34.8652 48.2053 35.1384C48.3185 35.4115 48.3768 35.7043 48.3768 36C48.3768 36.2957 48.3185 36.5885 48.2053 36.8616C48.092 37.1348 47.9261 37.3829 47.7169 37.5919L34.2169 51.0919C34.0079 51.3011 33.7598 51.467 33.4866 51.5803C33.2135 51.6935 32.9207 51.7518 32.625 51.7518C32.3293 51.7518 32.0365 51.6935 31.7634 51.5803C31.4902 51.467 31.2421 51.3011 31.0331 51.0919L24.2831 44.3419C23.8609 43.9197 23.6237 43.3471 23.6237 42.75C23.6237 42.1529 23.8609 41.5803 24.2831 41.1581C24.7053 40.7359 25.2779 40.4987 25.875 40.4987C26.4721 40.4987 27.0447 40.7359 27.4669 41.1581L32.625 46.3191L44.5331 34.4081C44.7421 34.1989 44.9902 34.033 45.2634 33.9197C45.5365 33.8065 45.8293 33.7482 46.125 33.7482C46.4207 33.7482 46.7135 33.8065 46.9866 33.9197C47.2598 34.033 47.5079 34.1989 47.7169 34.4081Z" fill="#E9B100"/></svg>