<svg width="33" height="32" fill="none" xmlns="http://www.w3.org/2000/svg"><rect x="0.869049" width="32" height="32" rx="16" fill="#005469"/><path d="M16.869 10.6875C16.1892 10.6875 15.5246 10.8891 14.9593 11.2668C14.394 11.6445 13.9534 12.1814 13.6932 12.8095C13.433 13.4376 13.365 14.1288 13.4976 14.7956C13.6302 15.4624 13.9576 16.0749 14.4384 16.5557C14.9191 17.0364 15.5316 17.3638 16.1984 17.4964C16.8652 17.6291 17.5564 17.561 18.1845 17.3008C18.8126 17.0407 19.3495 16.6001 19.7272 16.0348C20.1049 15.4695 20.3065 14.8049 20.3065 14.125C20.3055 13.2136 19.943 12.3399 19.2986 11.6955C18.6542 11.051 17.7804 10.6885 16.869 10.6875ZM16.869 15.6875C16.56 15.6875 16.2579 15.5959 16.001 15.4242C15.744 15.2525 15.5437 15.0085 15.4255 14.7229C15.3072 14.4374 15.2763 14.1233 15.3366 13.8202C15.3969 13.5171 15.5457 13.2387 15.7642 13.0201C15.9827 12.8016 16.2611 12.6528 16.5642 12.5925C16.8673 12.5322 17.1815 12.5632 17.467 12.6814C17.7525 12.7997 17.9965 13 18.1682 13.2569C18.3399 13.5139 18.4315 13.816 18.4315 14.125C18.4315 14.5394 18.2669 14.9368 17.9739 15.2299C17.6809 15.5229 17.2834 15.6875 16.869 15.6875ZM16.869 6.9375C14.9634 6.93957 13.1365 7.69748 11.789 9.04495C10.4415 10.3924 9.68362 12.2194 9.68155 14.125C9.68155 20.1687 16.0597 24.7031 16.3315 24.893C16.4891 25.0032 16.6768 25.0624 16.869 25.0624C17.0613 25.0624 17.249 25.0032 17.4065 24.893C18.6146 24.0027 19.7198 22.9808 20.7019 21.8461C22.8964 19.3258 24.0565 16.6539 24.0565 14.125C24.0545 12.2194 23.2966 10.3924 21.9491 9.04495C20.6016 7.69748 18.7747 6.93957 16.869 6.9375ZM19.3144 20.5867C18.5695 21.4423 17.7512 22.2313 16.869 22.9445C15.9869 22.2313 15.1686 21.4423 14.4237 20.5867C13.119 19.0758 11.5565 16.7273 11.5565 14.125C11.5565 12.716 12.1163 11.3648 13.1125 10.3685C14.1088 9.37221 15.4601 8.8125 16.869 8.8125C18.278 8.8125 19.6293 9.37221 20.6256 10.3685C21.6218 11.3648 22.1815 12.716 22.1815 14.125C22.1815 16.7273 20.619 19.0758 19.3144 20.5867Z" fill="white"/></svg>