<svg width="33" height="32" fill="none" xmlns="http://www.w3.org/2000/svg"><rect x="0.934509" width="32" height="32" rx="16" fill="#005469"/><path fill-rule="evenodd" clip-rule="evenodd" d="M13.7445 19.1909C16.9487 22.3951 19.9178 22.7459 20.7895 22.7784C21.8428 22.8167 22.9178 21.9567 23.3828 21.0759C22.6412 20.2059 21.6753 19.5309 20.6178 18.7992C19.9937 19.4226 19.2245 20.5809 18.2003 20.1659C17.6178 19.9317 16.1795 19.2692 14.9228 18.0117C13.6662 16.7542 13.0037 15.3167 12.7678 14.7351C12.3528 13.7092 13.5145 12.9384 14.1387 12.3142C13.407 11.2392 12.7437 10.2484 11.8753 9.54422C10.982 10.0109 10.117 11.0776 10.1562 12.1451C10.1887 13.0167 10.5395 15.9859 13.7445 19.1909ZM20.7278 24.4442C19.5278 24.4001 16.127 23.9301 12.5653 20.3692C9.0045 16.8076 8.53534 13.4076 8.49034 12.2067C8.42367 10.3767 9.82534 8.59922 11.4445 7.90506C11.6395 7.82086 11.853 7.78881 12.0641 7.81204C12.2752 7.83527 12.4767 7.91298 12.6487 8.03756C13.9887 9.01506 14.9128 10.4959 15.707 11.6559C15.8722 11.8971 15.9479 12.1885 15.921 12.4796C15.894 12.7707 15.7662 13.0433 15.5595 13.2501L14.4295 14.3809C14.692 14.9601 15.2262 15.9584 16.1012 16.8334C16.9762 17.7084 17.9745 18.2426 18.5545 18.5051L19.6837 17.3751C19.891 17.1675 20.1647 17.0395 20.457 17.0135C20.7492 16.9874 21.0412 17.065 21.282 17.2326C22.4653 18.0526 23.8553 18.9634 24.8687 20.2609C25.0034 20.4341 25.089 20.6404 25.1167 20.8581C25.1444 21.0758 25.1132 21.2969 25.0262 21.4984C24.3287 23.1259 22.5637 24.5117 20.7278 24.4442Z" fill="white"/></svg>