<svg width="72" height="72" fill="none" xmlns="http://www.w3.org/2000/svg"><path opacity="0.2" d="M63 36C63 41.3401 61.4165 46.5603 58.4497 51.0004C55.4829 55.4405 51.2661 58.9012 46.3325 60.9447C41.3988 62.9883 35.97 63.523 30.7326 62.4812C25.4951 61.4394 20.6841 58.8679 16.9081 55.0919C13.1321 51.3159 10.5606 46.5049 9.5188 41.2674C8.477 36.03 9.01169 30.6012 11.0553 25.6675C13.0988 20.7339 16.5595 16.5171 20.9996 13.5503C25.4397 10.5835 30.6599 9 36 9C43.1608 9 50.0284 11.8446 55.0919 16.9081C60.1554 21.9716 63 28.8392 63 36Z" fill="#E9B100"/><path d="M25.875 39.375C25.2075 39.375 24.555 39.1771 24 38.8062C23.4449 38.4354 23.0124 37.9083 22.7569 37.2916C22.5015 36.6749 22.4346 35.9963 22.5648 35.3416C22.6951 34.6869 23.0165 34.0855 23.4885 33.6135C23.9605 33.1415 24.5619 32.8201 25.2166 32.6898C25.8713 32.5596 26.5499 32.6265 27.1666 32.8819C27.7833 33.1374 28.3104 33.5699 28.6812 34.125C29.0521 34.68 29.25 35.3325 29.25 36C29.25 36.8951 28.8944 37.7535 28.2615 38.3865C27.6286 39.0194 26.7701 39.375 25.875 39.375ZM46.125 32.625C45.4575 32.625 44.805 32.8229 44.25 33.1938C43.6949 33.5646 43.2624 34.0917 43.0069 34.7084C42.7515 35.3251 42.6846 36.0037 42.8148 36.6584C42.9451 37.3131 43.2665 37.9145 43.7385 38.3865C44.2105 38.8585 44.8119 39.1799 45.4666 39.3102C46.1213 39.4404 46.7999 39.3735 47.4166 39.1181C48.0333 38.8626 48.5604 38.4301 48.9312 37.875C49.3021 37.32 49.5 36.6675 49.5 36C49.5 35.1049 49.1444 34.2464 48.5115 33.6135C47.8786 32.9806 47.0201 32.625 46.125 32.625ZM42.6741 45.3459C40.6701 46.5897 38.3585 47.2487 36 47.2487C33.6415 47.2487 31.3299 46.5897 29.3259 45.3459C28.8209 45.0274 28.2101 44.9226 27.6278 45.0544C27.0455 45.1863 26.5394 45.5441 26.2209 46.0491C25.9024 46.5541 25.7976 47.1649 25.9294 47.7472C26.0613 48.3295 26.4191 48.8356 26.9241 49.1541C29.647 50.8515 32.7913 51.7513 36 51.7513C39.2087 51.7513 42.353 50.8515 45.0759 49.1541C45.5809 48.8356 45.9387 48.3295 46.0706 47.7472C46.2024 47.1649 46.0976 46.5541 45.7791 46.0491C45.4606 45.5441 44.9545 45.1863 44.3722 45.0544C43.7899 44.9226 43.179 45.0274 42.6741 45.3459ZM65.25 36C65.25 41.7851 63.5345 47.4403 60.3205 52.2504C57.1065 57.0606 52.5382 60.8096 47.1935 63.0235C41.8487 65.2373 35.9676 65.8166 30.2936 64.688C24.6197 63.5593 19.4078 60.7736 15.3171 56.6829C11.2264 52.5922 8.44065 47.3803 7.31203 41.7064C6.18341 36.0324 6.76266 30.1512 8.97652 24.8065C11.1904 19.4618 14.9394 14.8935 19.7496 11.6795C24.5597 8.46548 30.2149 6.75 36 6.75C43.7551 6.75819 51.1902 9.84251 56.6738 15.3262C62.1575 20.8098 65.2418 28.2449 65.25 36ZM60.75 36C60.7422 29.6287 58.2807 23.5052 53.8766 18.9011C49.4725 14.2969 43.4644 11.566 37.0997 11.2753C33.84 15.8569 33.75 20.2163 33.75 20.25C33.75 20.8467 33.9871 21.419 34.409 21.841C34.831 22.2629 35.4033 22.5 36 22.5C36.5967 22.5 37.169 22.2629 37.591 21.841C38.0129 21.419 38.25 20.8467 38.25 20.25C38.25 19.6533 38.4871 19.081 38.909 18.659C39.331 18.2371 39.9033 18 40.5 18C41.0967 18 41.669 18.2371 42.091 18.659C42.5129 19.081 42.75 19.6533 42.75 20.25C42.75 22.0402 42.0388 23.7571 40.773 25.023C39.5071 26.2888 37.7902 27 36 27C34.2098 27 32.4929 26.2888 31.227 25.023C29.9612 23.7571 29.25 22.0402 29.25 20.25C29.25 20.0447 29.2866 16.2281 31.6294 11.6353C26.9954 12.4667 22.6946 14.6025 19.2318 17.7922C15.769 20.9819 13.2878 25.0931 12.0793 29.6433C10.8708 34.1935 10.9852 38.9941 12.409 43.4816C13.8329 47.9691 16.5071 51.9574 20.118 54.9785C23.7288 57.9996 28.1264 59.9282 32.7947 60.5379C37.4631 61.1476 42.2085 60.4132 46.4741 58.4208C50.7397 56.4284 54.3486 53.2607 56.8772 49.2894C59.4058 45.3181 60.7493 40.708 60.75 36Z" fill="#E9B100"/></svg>