<svg width="80" height="66" fill="none" xmlns="http://www.w3.org/2000/svg"><path d="M33.7252 56.429H36.5798V47.1585C36.5798 41.1666 31.7043 36.2911 25.7124 36.2911H9.02979V39.1458H25.7124C30.1286 39.1458 33.7252 42.7423 33.7252 47.1585V56.429Z" fill="white"/><path d="M34.949 45.8579H13.7725V48.7125H34.949V45.8579Z" fill="white"/><path d="M33.7252 56.429H36.5798V47.1585C36.5798 41.1666 31.7043 36.2911 25.7124 36.2911H9.02979V39.1458H25.7124C30.1286 39.1458 33.7252 42.7423 33.7252 47.1585V56.429Z" fill="white"/><path d="M34.949 45.8579H13.7725V48.7125H34.949V45.8579Z" fill="white"/><path d="M46.6071 56.429H43.7524V47.1585C43.7524 41.1666 48.6279 36.2911 54.6198 36.2911H64.7594C66.8226 36.2911 68.7516 37.3157 69.9034 39.0256C71.0622 40.7356 71.2883 42.9048 70.5181 44.8197C69.5642 47.1797 67.3031 48.706 64.7594 48.706H46.6071V56.4219V56.429ZM46.7131 45.8584H64.7594C66.1373 45.8584 67.3526 45.0317 67.8684 43.7598C68.2924 42.707 68.1723 41.5694 67.5363 40.6296C66.9004 39.6898 65.8899 39.1528 64.7594 39.1528H54.6198C50.6488 39.1528 47.3349 42.064 46.7131 45.8584Z" fill="white"/><path d="M46.2755 8.97363H43.4209V18.2441C43.4209 24.236 48.2964 29.1115 54.2883 29.1115H70.9709V26.2569H54.2883C49.8721 26.2569 46.2755 22.6603 46.2755 18.2441V8.97363Z" fill="white"/><path d="M66.2303 16.6897H45.0537V19.5443H66.2303V16.6897Z" fill="white"/><path d="M46.2755 8.97363H43.4209V18.2441C43.4209 24.236 48.2964 29.1115 54.2883 29.1115H70.9709V26.2569H54.2883C49.8721 26.2569 46.2755 22.6603 46.2755 18.2441V8.97363Z" fill="white"/><path d="M66.2303 16.6897H45.0537V19.5443H66.2303V16.6897Z" fill="white"/><path d="M33.3938 8.97363H36.2485V18.2441C36.2485 24.236 31.373 29.1115 25.3811 29.1115H15.2415C13.1782 29.1115 11.2492 28.0869 10.0975 26.377C8.93868 24.667 8.71257 22.4978 9.48276 20.5829C10.4367 18.2229 12.6977 16.6967 15.2415 16.6967H33.3938V8.9807V8.97363ZM33.2878 19.5442H15.2415C13.8636 19.5442 12.6483 20.371 12.1325 21.6428C11.7085 22.6956 11.8286 23.8333 12.4646 24.773C13.1005 25.7128 14.1109 26.2498 15.2415 26.2498H25.3811C29.3521 26.2498 32.666 23.3386 33.2878 19.5442Z" fill="white"/><path d="M77.1879 30.2271L78.1842 32.0501L80.0002 33.0464L78.1842 34.0426L77.1879 35.8586L76.1917 34.0426L74.3687 33.0464L76.1917 32.0501L77.1879 30.2271Z" fill="white"/><path d="M2.81224 30.2271L3.80854 32.0501L5.63154 33.0464L3.80854 34.0426L2.81224 35.8586L1.81595 34.0426L0 33.0464L1.81595 32.0501L2.81224 30.2271Z" fill="white"/><path d="M42.8059 62.5908L40.9899 63.5871L39.9936 65.4101L38.9973 63.5871L37.1743 62.5908L38.9973 61.5945L39.9936 59.7786L40.9899 61.5945L42.8059 62.5908Z" fill="white"/><path d="M42.8059 2.8193L40.9899 3.80853L39.9936 5.63154L38.9973 3.80853L37.1743 2.8193L38.9973 1.82301L39.9936 0L40.9899 1.82301L42.8059 2.8193Z" fill="white"/></svg>