<svg width="341" height="116" fill="none" xmlns="http://www.w3.org/2000/svg"><path d="M5.22619 83.023H0.728516V57.8712H33.2927V61.7449H5.22619V69.6012H32.5891V73.2152H5.22619V83.023Z" fill="white"/><path d="M57.9256 83.4669C53.3777 83.4669 49.6422 83.0063 46.715 82.085C43.7877 81.1637 41.6184 79.744 40.2071 77.826C38.7917 75.908 38.0881 73.4498 38.0881 70.4513C38.0881 67.4529 38.7959 64.9611 40.2071 63.0557C41.6184 61.1503 43.7877 59.7348 46.715 58.8135C49.6422 57.8922 53.3777 57.4315 57.9256 57.4315C62.4736 57.4315 66.1714 57.8922 69.0986 58.8135C72.0259 59.7348 74.1993 61.1503 75.6274 63.0557C77.0512 64.9611 77.7673 67.4277 77.7673 70.4513C77.7673 73.4749 77.0554 75.908 75.6274 77.826C74.2035 79.744 72.0259 81.1637 69.0986 82.085C66.1714 83.0063 62.4484 83.4669 57.9256 83.4669ZM57.9256 79.5597C60.7775 79.5597 63.1813 79.3797 65.137 79.0237C67.0927 78.6677 68.6589 78.115 69.8399 77.3653C71.0208 76.6157 71.8751 75.6693 72.4028 74.526C72.9304 73.3828 73.1943 72.0259 73.1943 70.4513C73.1943 68.8767 72.9304 67.4906 72.4028 66.3599C71.8751 65.2292 71.0208 64.2869 69.8399 63.5373C68.6589 62.7877 67.0927 62.2349 65.137 61.8789C63.1813 61.523 60.7775 61.3429 57.9256 61.3429C54.1148 61.3429 51.0912 61.6612 48.8549 62.3019C46.6186 62.9426 45.0147 63.931 44.0432 65.271C43.0716 66.6111 42.5858 68.3365 42.5858 70.4513C42.5858 72.5661 43.0716 74.2915 44.0432 75.6316C45.0147 76.9717 46.6186 77.96 48.8549 78.6007C51.0912 79.2415 54.1148 79.5597 57.9256 79.5597Z" fill="white"/><path d="M118.216 79.1536V83.0273H83.1479V79.4132L104.719 65.5852C105.285 65.2879 105.917 64.9821 106.616 64.6639C107.316 64.3456 108.032 64.0357 108.756 63.7426C109.481 63.4494 110.18 63.1647 110.858 62.8966C111.533 62.6244 112.132 62.3815 112.647 62.1596L104.053 62.4527H83.8096V58.5455H118.103V62.1973L98.0062 75.4348C97.3445 75.7782 96.6242 76.13 95.8495 76.486C95.0747 76.8419 94.2749 77.1979 93.4541 77.5539C92.6291 77.9098 91.8334 78.2407 91.0587 78.5506C90.2839 78.8604 89.5636 79.1452 88.902 79.4174L97.8261 79.1578H118.221L118.216 79.1536Z" fill="white"/><path d="M139.832 83.023V57.8712H164.209C165.758 57.8712 167.136 58.0262 168.338 58.3319C169.544 58.6376 170.557 59.1108 171.382 59.7515C172.207 60.3923 172.831 61.2256 173.263 62.26C173.694 63.2944 173.907 64.5465 173.907 66.0206C173.907 68.014 173.526 69.6472 172.764 70.9245C172.002 72.2018 170.901 73.1315 169.464 73.7094C168.024 74.2873 166.273 74.5763 164.209 74.5763H144.333V83.023H139.836H139.832ZM163.836 61.7491H144.329V70.7109H163.836C165.704 70.7109 167.073 70.3675 167.948 69.6766C168.819 68.9898 169.259 67.8465 169.259 66.2468C169.259 64.647 168.824 63.4703 167.948 62.7793C167.073 62.0925 165.704 61.7449 163.836 61.7449V61.7491Z" fill="white"/><path d="M184.084 79.1531H211.555V83.0268H179.582V57.875H184.079V79.1531H184.084Z" fill="white"/><path d="M237.29 57.8754V58.6878L220.694 83.0272H215.238L232.755 57.8754H237.29ZM249.205 77.2732H222.541V74.0277H249.205V77.2732ZM250.75 83.023L234.12 58.6836L234.158 57.8712H238.693L256.211 83.023H250.754H250.75Z" fill="white"/><path d="M302.064 76.5523C302.064 76.5523 293.287 83.0224 287.101 83.0224H260.45V79.4083L282.022 65.5803C282.587 65.283 283.219 64.9773 283.919 64.659C284.618 64.3407 285.334 64.0308 286.059 63.7377C286.783 63.4445 287.483 63.1598 288.161 62.8918C288.835 62.6195 289.434 62.3767 289.949 62.1547L281.356 62.4478H261.112V58.5406H295.406V62.1924L275.309 75.43C274.647 75.7734 273.927 76.1251 273.152 76.4811C272.377 76.8371 271.577 77.193 270.757 77.549C269.932 77.9049 269.136 78.2358 268.361 78.5457C267.586 78.8556 266.866 79.1403 266.204 79.4125L275.129 79.1529H288.245C293.856 79.1529 302.064 76.5523 302.064 76.5523Z" fill="white"/><path d="M303.649 77.4493L299.767 83.0274H305.223L310.031 75.9793C310.031 75.9793 304.842 75.7365 303.649 77.4534V77.4493Z" fill="white"/><path d="M323.215 57.875H317.277L305.044 75.4385C306.204 74.9109 308.064 74.2785 311.004 73.7509C315.183 72.9971 328.831 73.6001 329.614 74.7434C331.654 77.7041 335.272 83.0268 335.272 83.0268H340.728L323.211 57.875H323.215ZM312.499 72.348L320.229 61.0075L326.725 70.4886C322.449 70.3295 316.657 70.966 312.499 72.348Z" fill="white"/><path d="M122.58 115.543H120.872V105.995H122.58V109.843H132.271V105.995H133.979V115.543H132.271V111.33H122.58V115.543Z" fill="white"/><path d="M150.22 115.714C148.494 115.714 147.075 115.539 145.965 115.191C144.855 114.839 144.03 114.303 143.494 113.574C142.958 112.846 142.69 111.912 142.69 110.773C142.69 109.634 142.958 108.687 143.494 107.967C144.03 107.243 144.855 106.707 145.965 106.359C147.075 106.007 148.494 105.835 150.22 105.835C151.945 105.835 153.352 106.011 154.462 106.359C155.572 106.711 156.397 107.247 156.941 107.967C157.481 108.692 157.754 109.625 157.754 110.773C157.754 111.92 157.481 112.846 156.941 113.574C156.401 114.303 155.572 114.843 154.462 115.191C153.352 115.543 151.937 115.714 150.22 115.714ZM150.22 114.228C151.304 114.228 152.213 114.161 152.959 114.023C153.7 113.889 154.295 113.679 154.743 113.394C155.191 113.11 155.513 112.749 155.714 112.318C155.915 111.883 156.016 111.368 156.016 110.773C156.016 110.178 155.915 109.646 155.714 109.219C155.513 108.792 155.191 108.432 154.743 108.147C154.295 107.862 153.7 107.653 152.959 107.519C152.217 107.385 151.304 107.314 150.22 107.314C148.771 107.314 147.623 107.435 146.777 107.678C145.927 107.921 145.32 108.298 144.952 108.805C144.583 109.311 144.399 109.969 144.399 110.773C144.399 111.577 144.583 112.23 144.952 112.741C145.32 113.252 145.932 113.625 146.777 113.868C147.628 114.11 148.775 114.232 150.22 114.232V114.228Z" fill="white"/><path d="M171.294 107.464H165.54V105.995H178.756V107.464H173.002V115.543H171.294V107.464Z" fill="white"/><path d="M199.602 115.543H187.24V105.995H199.602V107.368H188.948V110.099H199.338V111.263H188.948V114.173H199.602V115.547V115.543Z" fill="white"/><path d="M210.161 114.073H220.593V115.543H208.452V105.995H210.161V114.073Z" fill="white"/><path d="M167.013 33.444H168.705V27.9496C168.705 24.3984 165.815 21.5088 162.264 21.5088H152.376V23.2007H162.264C164.881 23.2007 167.013 25.3322 167.013 27.9496V33.444Z" fill="white"/><path d="M167.738 27.1787H155.187V28.8706H167.738V27.1787Z" fill="white"/><path d="M167.013 33.444H168.705V27.9496C168.705 24.3984 165.815 21.5088 162.264 21.5088H152.376V23.2007H162.264C164.881 23.2007 167.013 25.3322 167.013 27.9496V33.444Z" fill="white"/><path d="M167.738 27.1787H155.187V28.8706H167.738V27.1787Z" fill="white"/><path d="M174.647 33.444H172.956V27.9496C172.956 24.3984 175.845 21.5088 179.396 21.5088H185.406C186.629 21.5088 187.772 22.116 188.455 23.1295C189.141 24.1429 189.275 25.4285 188.819 26.5634C188.254 27.9622 186.913 28.8667 185.406 28.8667H174.647V33.4398V33.444ZM174.71 27.179H185.406C186.222 27.179 186.943 26.6891 187.248 25.9353C187.5 25.3113 187.429 24.6371 187.052 24.0801C186.675 23.5231 186.076 23.2048 185.406 23.2048H179.396C177.043 23.2048 175.079 24.9302 174.71 27.179Z" fill="white"/><path d="M174.451 5.31836H172.759V10.8127C172.759 14.364 175.649 17.2535 179.2 17.2535H189.087V15.5617H179.2C176.582 15.5617 174.451 13.4301 174.451 10.8127V5.31836Z" fill="white"/><path d="M186.278 9.89148H173.727V11.5833H186.278V9.89148Z" fill="white"/><path d="M174.451 5.31836H172.759V10.8127C172.759 14.364 175.649 17.2535 179.2 17.2535H189.087V15.5617H179.2C176.582 15.5617 174.451 13.4301 174.451 10.8127V5.31836Z" fill="white"/><path d="M186.278 9.89148H173.727V11.5833H186.278V9.89148Z" fill="white"/><path d="M166.816 5.31836H168.508V10.8127C168.508 14.364 165.619 17.2535 162.067 17.2535H156.058C154.835 17.2535 153.692 16.6463 153.009 15.6329C152.322 14.6194 152.188 13.3338 152.645 12.1989C153.21 10.8002 154.55 9.8956 156.058 9.8956H166.816V5.32255V5.31836ZM166.753 11.5833H156.058C155.241 11.5833 154.521 12.0732 154.215 12.827C153.964 13.451 154.035 14.1253 154.412 14.6822C154.789 15.2392 155.388 15.5575 156.058 15.5575H162.067C164.421 15.5575 166.385 13.8321 166.753 11.5833Z" fill="white"/><path d="M192.772 17.9148L193.362 18.9952L194.438 19.5857L193.362 20.1762L192.772 21.2525L192.181 20.1762L191.101 19.5857L192.181 18.9952L192.772 17.9148Z" fill="white"/><path d="M148.691 17.9148L149.282 18.9952L150.362 19.5857L149.282 20.1762L148.691 21.2525L148.101 20.1762L147.025 19.5857L148.101 18.9952L148.691 17.9148Z" fill="white"/><path d="M172.395 37.0959L171.318 37.6864L170.728 38.7669L170.137 37.6864L169.057 37.0959L170.137 36.5055L170.728 35.4292L171.318 36.5055L172.395 37.0959Z" fill="white"/><path d="M172.395 1.67092L171.318 2.25721L170.728 3.33766L170.137 2.25721L169.057 1.67092L170.137 1.08045L170.728 0L171.318 1.08045L172.395 1.67092Z" fill="white"/></svg>