<?xml version="1.0" encoding="UTF-8"?><svg id="Camada_2" data-name="Camada 2" xmlns="http://www.w3.org/2000/svg" viewBox="0 0 811.9 127.35"><defs><style>.cls-1 {
        fill: #fff;
      }</style></defs><g id="Camada_2-2" data-name="Camada 2"><g><g><path class="cls-1" d="M197.48,86.7h-8.24v-46.06h59.64v7.09h-51.4v14.39h50.11v6.62h-50.11v17.96Z"/><path class="cls-1" d="M293.99,87.52c-8.33,0-15.17-.84-20.53-2.53-5.36-1.69-9.33-4.29-11.92-7.8-2.59-3.51-3.88-8.01-3.88-13.51s1.3-10.05,3.88-13.54c2.58-3.49,6.56-6.08,11.92-7.77,5.36-1.69,12.2-2.53,20.53-2.53s15.1.84,20.46,2.53c5.36,1.69,9.34,4.28,11.96,7.77,2.61,3.49,3.92,8.01,3.92,13.54s-1.3,9.99-3.92,13.51c-2.61,3.51-6.6,6.11-11.96,7.8-5.36,1.69-12.18,2.53-20.46,2.53h0ZM293.99,80.36c5.22,0,9.62-.33,13.21-.98,3.58-.65,6.45-1.66,8.61-3.04,2.16-1.37,3.73-3.11,4.69-5.2s1.45-4.58,1.45-7.46-.48-5.42-1.45-7.49-2.53-3.8-4.69-5.17c-2.16-1.37-5.03-2.39-8.61-3.04s-7.98-.98-13.21-.98c-6.98,0-12.52.58-16.61,1.76-4.1,1.17-7.03,2.98-8.81,5.44s-2.67,5.61-2.67,9.49.89,7.03,2.67,9.49,4.72,4.26,8.81,5.44c4.1,1.17,9.63,1.76,16.61,1.76h0Z"/><path class="cls-1" d="M404.4,79.62v7.09h-64.22v-6.62l39.5-25.32c1.04-.54,2.19-1.1,3.47-1.69s2.59-1.15,3.92-1.69,2.61-1.06,3.85-1.55c1.23-.5,2.33-.94,3.27-1.35l-15.74.54h-37.07v-7.16h62.8v6.69l-36.8,24.24c-1.21.63-2.53,1.27-3.95,1.92-1.42.65-2.88,1.3-4.39,1.96-1.51.65-2.97,1.26-4.39,1.83s-2.74,1.09-3.95,1.59l16.34-.48h37.35,0Z"/><path class="cls-1" d="M443.98,86.7v-46.06h44.64c2.84,0,5.36.28,7.56.84,2.21.56,4.06,1.43,5.58,2.6s2.65,2.7,3.44,4.59c.79,1.89,1.18,4.19,1.18,6.89,0,3.65-.7,6.64-2.09,8.98-1.4,2.34-3.41,4.04-6.04,5.1-2.64,1.06-5.84,1.59-9.62,1.59h-36.4v15.47h-8.24ZM487.94,47.74h-35.72v16.41h35.72c3.42,0,5.93-.63,7.53-1.89,1.6-1.26,2.4-3.35,2.4-6.28s-.8-5.08-2.4-6.35c-1.6-1.26-4.11-1.89-7.53-1.89h0Z"/><path class="cls-1" d="M525.03,79.62h50.31v7.09h-58.55v-46.06h8.24v38.97h0Z"/><path class="cls-1" d="M622.47,40.65v1.49l-30.39,44.57h-9.99l32.08-46.06h8.31ZM644.29,76.17h-48.83v-5.94h48.83v5.94ZM647.12,86.7l-30.45-44.57.07-1.49h8.31l32.08,46.06h-10Z"/><path class="cls-1" d="M741.09,74.85s-16.07,11.85-27.4,11.85h-48.81v-6.62l39.5-25.32c1.04-.54,2.19-1.1,3.47-1.69,1.28-.58,2.59-1.15,3.92-1.69s2.61-1.06,3.85-1.55c1.23-.5,2.33-.94,3.27-1.35l-15.74.54h-37.07v-7.16h62.8v6.69l-36.8,24.24c-1.21.63-2.53,1.27-3.95,1.92-1.42.65-2.88,1.3-4.39,1.96-1.51.65-2.97,1.26-4.39,1.83s-2.74,1.09-3.95,1.59l16.34-.48h24.02c10.28,0,25.31-4.76,25.31-4.76h0Z"/><g><path class="cls-1" d="M743.99,76.5l-7.11,10.22h9.99l8.8-12.91s-9.5-.44-11.69,2.7h0Z"/><path class="cls-1" d="M779.83,40.65h-10.87l-22.4,32.16c2.12-.97,5.53-2.12,10.91-3.09,7.65-1.38,32.65-.28,34.08,1.82,3.73,5.42,10.36,15.17,10.36,15.17h9.99l-32.08-46.06h0ZM760.2,67.15l14.16-20.77,11.89,17.36c-7.83-.29-18.44.87-26.05,3.41Z"/></g></g><g><g><g><path class="cls-1" d="M65.66,109.87h5.56v-18.05c0-11.67-9.49-21.16-21.16-21.16H17.58v5.56h32.48c8.6,0,15.6,7,15.6,15.6v18.05h0Z"/><rect class="cls-1" x="26.81" y="89.29" width="41.23" height="5.56"/><path class="cls-1" d="M65.66,109.87h5.56v-18.05c0-11.67-9.49-21.16-21.16-21.16H17.58v5.56h32.48c8.6,0,15.6,7,15.6,15.6v18.05h0Z"/><rect class="cls-1" x="26.81" y="89.29" width="41.23" height="5.56"/></g><path class="cls-1" d="M90.74,109.87h-5.56v-18.05c0-11.67,9.49-21.16,21.16-21.16h19.74c4.02,0,7.77,1.99,10.02,5.32,2.26,3.33,2.7,7.55,1.2,11.28-1.86,4.59-6.26,7.57-11.21,7.57h-35.34v15.02h0ZM90.95,89.29h35.14c2.68,0,5.05-1.61,6.05-4.09.83-2.05.59-4.26-.65-6.09s-3.21-2.88-5.41-2.88h-19.74c-7.73,0-14.18,5.67-15.39,13.06Z"/><g><path class="cls-1" d="M90.1,17.47h-5.56v18.05c0,11.67,9.49,21.16,21.16,21.16h32.48v-5.56h-32.48c-8.6,0-15.6-7-15.6-15.6v-18.05Z"/><rect class="cls-1" x="87.72" y="32.49" width="41.23" height="5.56"/><path class="cls-1" d="M90.1,17.47h-5.56v18.05c0,11.67,9.49,21.16,21.16,21.16h32.48v-5.56h-32.48c-8.6,0-15.6-7-15.6-15.6v-18.05Z"/><rect class="cls-1" x="87.72" y="32.49" width="41.23" height="5.56"/></g><path class="cls-1" d="M65.02,17.47h5.56v18.05c0,11.67-9.49,21.16-21.16,21.16h-19.74c-4.02,0-7.77-1.99-10.02-5.32-2.26-3.33-2.7-7.55-1.2-11.28,1.86-4.59,6.26-7.57,11.21-7.57h35.34v-15.02h0ZM64.81,38.05H29.67c-2.68,0-5.05,1.61-6.05,4.09-.83,2.05-.59,4.26.65,6.09,1.24,1.83,3.21,2.88,5.41,2.88h19.74c7.73,0,14.18-5.67,15.39-13.06Z"/></g><g><polygon class="cls-1" points="150.29 58.85 152.23 62.4 155.76 64.34 152.23 66.28 150.29 69.82 148.35 66.28 144.8 64.34 148.35 62.4 150.29 58.85"/><polygon class="cls-1" points="5.48 58.85 7.42 62.4 10.96 64.34 7.42 66.28 5.48 69.82 3.54 66.28 0 64.34 3.54 62.4 5.48 58.85"/><polygon class="cls-1" points="83.34 121.86 79.81 123.8 77.87 127.35 75.93 123.8 72.38 121.86 75.93 119.92 77.87 116.39 79.81 119.92 83.34 121.86"/><polygon class="cls-1" points="83.34 5.49 79.81 7.42 77.87 10.96 75.93 7.42 72.38 5.49 75.93 3.55 77.87 0 79.81 3.55 83.34 5.49"/></g></g></g></g></svg>