<?xml version="1.0" encoding="UTF-8"?><svg id="Camada_2" data-name="Camada 2" xmlns="http://www.w3.org/2000/svg" viewBox="0 0 195.88 104"><defs><style>.cls-1 {
        fill: #d69a01;
      }

      .cls-2 {
        letter-spacing: .1em;
      }

      .cls-3 {
        fill: #f0b700;
      }

      .cls-4 {
        fill: #9e6531;
      }

      .cls-5 {
        letter-spacing: .12em;
      }

      .cls-6 {
        fill: #5d9b9e;
      }

      .cls-7 {
        letter-spacing: .11em;
      }

      .cls-8 {
        fill: #fdc406;
        font-family: Montserrat-Regular, Montserrat;
        font-size: 11.46px;
      }

      .cls-9 {
        fill: #be7323;
      }

      .cls-10 {
        fill: #fff;
        font-family: Montserrat-Bold, Montserrat;
        font-size: 15.58px;
        font-weight: 700;
        letter-spacing: .02em;
      }

      .cls-11 {
        stroke: #fff;
      }</style></defs><g id="Camada_1-2" data-name="Camada 1"><g><rect class="cls-11" x=".5" y="24.03" width="194.88" height="79.47" rx="15.5" ry="15.5"/><text class="cls-8" transform="translate(22.55 68.42)"><tspan class="cls-7" x="0" y="0">P</tspan><tspan class="cls-5" x="9.49" y="0">ERÍODO DE </tspan><tspan class="cls-2" x="94.49" y="0">V</tspan><tspan class="cls-5" x="103.69" y="0">EN</tspan><tspan class="cls-7" x="123.42" y="0">D</tspan><tspan class="cls-5" x="134.15" y="0">AS</tspan></text><g id="Objeto_generativo" data-name="Objeto generativo"><path class="cls-1" d="M141.42,24.25c-.07.13-.56.94-.64.96h-17.49c.02-.39,0-.81,0-1.2l18.13.24Z"/><path class="cls-1" d="M72.58,24.01c0,.4-.02.81,0,1.2h-17.49c-.07-.26-.65-.85-.72-1.04l18.01-.16.08.64.12-.64Z"/><path class="cls-3" d="M72.58,22.97c-.01.34,0,.7,0,1.04l-.12.64-.08-.64-18.01.16c-.06-.17.51-.85.64-1.28l17.57.08Z"/><path class="cls-3" d="M140.86,22.97c.2.59.81.76.56,1.28l-18.13-.24c0-.35.01-.7,0-1.04h17.57Z"/><g><path d="M140.78,25.22c.08-.03.58-.83.64-.96.25-.52-.36-.69-.56-1.28-1.63-4.87,6.75-5.56,5.94-.44-.09.55-.87,1.44-.88,1.52,0,.08.72.98.8,1.28,1.3,5.05-7.13,5.15-5.94-.12Z"/><path class="cls-6" d="M143.47,24.57c2.43-.31,2.62,2.94.8,3.29-2.56.49-2.85-3.02-.8-3.29Z"/><path class="cls-6" d="M143.63,20.24c2.2-.19,2.55,3.15.4,3.37-2.46.25-2.51-3.19-.4-3.37Z"/></g><g><path d="M55.01,22.89c-.13.44-.7,1.11-.64,1.28.07.2.65.78.72,1.04,1.4,4.93-6.76,5.38-6.02.44.08-.5.89-1.51.88-1.6,0-.08-.7-.84-.8-1.28-1.22-5.12,7.35-4.99,5.86.12Z"/><path class="cls-6" d="M51.84,20.24c2.28-.3,2.67,3.07.64,3.37-2.51.37-2.66-3.11-.64-3.37Z"/><path class="cls-6" d="M51.76,24.57c2.39-.38,2.68,2.91.88,3.29-2.58.54-2.95-2.96-.88-3.29Z"/></g><g><g><g><path class="cls-6" d="M62.43,10.85c2.98-.51,3.03,4.09.08,3.69-1.95-.26-1.94-3.37-.08-3.69Z"/><path class="cls-1" d="M58.58,3.87c2.54-.51,2.75,3.01.8,3.29-2.27.33-2.53-2.94-.8-3.29Z"/></g><g><path class="cls-6" d="M132.56,10.85c3.05-.55,3.05,4.16.08,3.69-1.93-.3-1.88-3.36-.08-3.69Z"/><path class="cls-1" d="M136.33,3.87c2.36-.48,2.8,2.67,1.04,3.21-2.35.72-2.93-2.83-1.04-3.21Z"/></g></g><g><g><path class="cls-6" d="M132.56,33.64c3.06-.53,3.02,4.05.16,3.69-2.02-.25-2-3.37-.16-3.69Z"/><path class="cls-1" d="M136.41,41.02c2.41-.43,2.68,2.97.8,3.29-2.35.41-2.65-2.96-.8-3.29Z"/></g><g><path class="cls-6" d="M62.35,33.64c3.03-.63,3.17,4.11.16,3.69-1.92-.27-1.93-3.33-.16-3.69Z"/><path class="cls-1" d="M58.66,41.02c2.32-.42,2.72,2.95.8,3.29-2.4.43-2.62-2.96-.8-3.29Z"/></g></g><g><path class="cls-4" d="M96.93.02c18.55-.78,31.04,19.32,22.02,35.66-8.19,14.84-28.89,16.7-39.63,3.53C66.84,23.91,77.47.84,96.93.02Z"/><g><path d="M96.85,3.79c14.37-.74,24.93,13.57,20.1,27.16-5.26,14.81-25.11,18.11-34.9,5.7-10.13-12.83-1.38-32.02,14.8-32.86Z"/><path class="cls-9" d="M87.63,13.1c.16-.01.6-.05.68.12-.34,2.07.32,5.11,3.09,4.37,1.91-.51,1.76-2.88,1.77-4.41h9.55c.19,1.6-.17,4.19,2.09,4.49,2.63.35,3.11-2.59,2.85-4.53,3.31-.08,3.4,2.9,3.21,5.46l-25.79.04c-.27-2.01-.17-5.36,2.57-5.54Z"/><path class="cls-3" d="M90.52,9.41c.49-.06,1.14.35,1.24.84.09.4.08,4.71,0,5.13-.23,1.2-1.86,1.19-2.09.16-.07-.34-.07-5.04,0-5.38.07-.31.54-.73.84-.76Z"/><path class="cls-3" d="M104.96,9.41c.43-.08,1.14.26,1.24.68.07.27.07,5.27,0,5.54-.19.77-1.53.93-1.93.16-.26-.49-.25-5.38,0-5.86.08-.15.51-.49.68-.52Z"/><g><path class="cls-3" d="M85.14,20h25.67l.04,15.36c-.27,1.43-1.38,2.58-2.85,2.77-6.13.78-13.92-.58-20.22,0-1.48-.25-2.47-1.31-2.77-2.77l.12-15.36Z"/><g><path d="M96.37,26.98c.15-.04,2.98-.04,3.13,0,.05.01.23.15.28.2.27.32.33,3.4-.2,3.65-.44.2-3.34.21-3.57-.28-.1-.21-.15-2.88-.08-3.13.04-.14.3-.41.44-.44Z"/><path d="M96.45,32.36c.15-.04,2.82-.04,2.97,0,.08.02.41.28.44.36.19.4.18,3.27-.2,3.49-.34.2-3.45.18-3.65-.2-.09-.18-.14-2.88-.08-3.13.04-.15.38-.48.52-.52Z"/><path d="M96.37,21.6c.36-.11,3.21-.03,3.41.2.27.31.33,3.4-.2,3.65-.2.09-3,.15-3.21.08-.02,0-.35-.33-.36-.36-.21-.45-.24-3.39.36-3.57Z"/><path d="M88.99,26.98c.16-.04,2.98-.04,3.13,0,.02,0,.35.34.36.36.05.15.05,3.06,0,3.21,0,.02-.25.26-.28.28-.37.19-3.37.18-3.57-.2-.1-.18-.14-2.96-.08-3.21.04-.14.3-.41.44-.44Z"/><path d="M88.99,21.6c.15-.04,2.9-.04,3.05,0,.08.02.42.3.44.36.05.15.05,3.06,0,3.21,0,.02-.25.26-.28.28-.37.19-3.37.18-3.57-.2-.1-.18-.14-2.96-.08-3.21.04-.14.3-.41.44-.44Z"/><path d="M103.83,21.6c.15-.04,2.9-.04,3.05,0,.07.02.32.21.36.28.19.36.18,3.37-.2,3.57-.36.19-3.37.18-3.57-.2-.1-.18-.14-2.96-.08-3.21.04-.14.3-.41.44-.44Z"/><path d="M103.83,26.98c.15-.04,2.9-.04,3.05,0,.07.02.32.21.36.28.19.36.14,3.26-.12,3.49-.3.26-3.43.3-3.65-.12-.09-.17-.14-3.09-.08-3.29.02-.07.37-.34.44-.36Z"/><path d="M89.07,32.36c.43-.11,3.14-.07,3.33.28.09.16.14,3.07.08,3.29,0,.02-.34.35-.36.36-.15.05-3.06.05-3.21,0-.02,0-.26-.25-.28-.28-.09-.18-.14-3-.08-3.21.02-.07.44-.42.52-.44Z"/><path d="M103.91,32.36c.49-.12,3.24-.13,3.41.44.04.15.04,2.9,0,3.05-.02.08-.3.42-.36.44-.15.05-3.06.05-3.21,0-.02,0-.35-.34-.36-.36-.04-.15-.05-2.98,0-3.13.02-.07.44-.42.52-.44Z"/></g></g></g></g></g></g><text class="cls-10" transform="translate(12.18 86.61)"><tspan x="0" y="0">5 A 11 DE SETEMBRO</tspan></text></g></g></svg>