<?xml version="1.0" encoding="UTF-8"?><svg id="Camada_2" data-name="Camada 2" xmlns="http://www.w3.org/2000/svg" viewBox="0 0 543 190.18"><defs><style>.cls-1 {
        fill: #fdc406;
      }

      .cls-2 {
        fill: #fff;
      }</style></defs><g id="Camada_1-2" data-name="Camada 1"><g><g><path class="cls-2" d="M145.86,70.56c0,10.87-4.61,20.09-13.83,27.66s-20.92,13.24-35.11,17.02c12.92,5.83,19.39,15.05,19.39,27.66,0,11.51-5.95,22.26-17.85,32.27-11.9,10.01-25.73,15.01-41.49,15.01-18.28,0-28.69-6.93-31.21-20.8-3.47,7.56-5.75,13.63-6.86,18.2-.47,1.57-1.58,2.36-3.31,2.36-3.31,0-6.74-1.93-10.28-5.79-3.55-3.86-5.32-8.63-5.32-14.3,0-8.35,7.45-25.14,22.34-50.35,14.89-25.21,28.41-44.21,40.54-56.97-14.03,4.25-30.26,10.4-48.7,18.44-1.58.79-2.76,1.18-3.55,1.18-2.52,0-3.63-1.73-3.31-5.2,0-6.93,5.36-13.63,16.08-20.09,10.71-6.46,23.24-11.5,37.59-15.13,14.34-3.62,27.5-5.44,39.48-5.44,13.55,0,24.5,3.23,32.86,9.69,8.35,6.46,12.53,14.66,12.53,24.59ZM50.12,167.96c10.24,0,20.05-3.58,29.43-10.76,9.38-7.17,14.07-14.46,14.07-21.87,0-7.88-7.01-11.82-21.04-11.82-6.62,0-14.66.95-24.11,2.84-6.46,11.35-11.51,20.49-15.13,27.42v.71c0,8.98,5.59,13.48,16.78,13.48ZM59.1,108.86c9.77-1.89,19.3-4.57,28.6-8.04,9.3-3.46,17.65-8.16,25.06-14.07,7.41-5.91,11.11-12.09,11.11-18.56,0-8.35-6.94-12.53-20.8-12.53-6.15,0-12.06.55-17.73,1.65,2.68,2.68,4.02,5.05,4.02,7.09,0,.95-.32,1.74-.95,2.36-7.41,8.67-17.18,22.69-29.31,42.08Z"/><path class="cls-2" d="M215.6,82.86c3.31,0,6.66,1.65,10.05,4.96,3.39,3.31,5.08,6.31,5.08,8.98,0,1.42-.47,2.45-1.42,3.07-10.4,12.92-17.81,25.38-22.22,37.35-.16,2.21-1.1,3.31-2.84,3.31-1.89,0-3.82-1.46-5.79-4.37-1.97-2.91-2.96-6.66-2.96-11.23,0-4.1,1.02-8.67,3.07-13.71-10.09,10.87-20.33,23.68-30.73,38.42-10.4,14.74-17.1,25.81-20.09,33.21-.95,2.68-2.92,4.02-5.91,4.02-3.63,0-7.21-1.77-10.76-5.32-3.55-3.55-5.32-7.84-5.32-12.88,0-6.77,3.27-17.18,9.81-31.21,6.54-14.03,13.59-26.63,21.16-37.82,7.56-11.19,12.77-16.78,15.6-16.78,3.15,0,6.3,1.5,9.46,4.49,3.15,3,4.73,5.67,4.73,8.04,0,.95-.32,1.65-.95,2.13-9.46,11.51-18.28,27.03-26.48,46.57,11.03-15.92,22.02-30.1,32.98-42.55,10.95-12.45,18.79-18.68,23.52-18.68Z"/><path class="cls-2" d="M317.96,83.09c3.15,0,6.5,1.58,10.05,4.73,3.55,3.15,5.32,5.67,5.32,7.56,0,.79-.32,1.5-.95,2.13-8.2,10.09-16.83,24.82-25.89,44.21-9.06,19.39-13.59,33.73-13.59,43.03,0,1.58-.87,2.36-2.6,2.36-3.15,0-6.74-1.93-10.76-5.79-4.02-3.86-6.03-8.31-6.03-13.36s1.97-12.61,5.91-22.69c-18.76,27.42-34.91,41.13-48.46,41.13-11.67,0-17.49-6.3-17.49-18.91,0-10.24,3.58-22.14,10.76-35.7,7.17-13.55,16.82-25.45,28.96-35.7,12.13-10.24,24.11-15.37,35.93-15.37,9.93,0,15.21,4.89,15.84,14.66,6.46-8.19,10.79-12.29,13-12.29ZM244.91,164.18c6.3,0,22.38-17.33,48.23-52.01l4.49-6.62c.16-.63.24-1.5.24-2.6,0-2.36-.71-4.37-2.13-6.03-1.42-1.65-2.92-2.48-4.49-2.48-5.36,0-12.1,4.46-20.21,13.36-8.12,8.91-15.01,18.64-20.69,29.2-5.67,10.56-8.51,18.28-8.51,23.17,0,2.68,1.02,4.02,3.07,4.02Z"/><path class="cls-2" d="M393.6,93.97c-5.36,0-11.47,2.56-18.32,7.68-6.86,5.12-10.28,10.36-10.28,15.72,0,3.31,1.54,6.54,4.61,9.69,3.07,3.15,6.42,5.91,10.05,8.27,3.62,2.36,6.97,5.52,10.05,9.46,3.07,3.94,4.61,8.2,4.61,12.77,0,8.36-4.14,15.48-12.41,21.39s-18.08,8.87-29.43,8.87c-10.72,0-19.62-2.68-26.71-8.04-7.09-5.36-10.64-11.82-10.64-19.39,0-5.83,1.81-10.79,5.44-14.89,3.62-4.1,6.93-6.15,9.93-6.15,1.73,0,2.6.79,2.6,2.36.16,7.72,3.23,14.5,9.22,20.33,5.99,5.83,12.45,8.75,19.38,8.75,3.31,0,5.91-.71,7.8-2.13,1.89-1.42,2.84-3.15,2.84-5.2,0-2.52-1.7-5.36-5.08-8.51-3.39-3.15-7.13-6.07-11.23-8.75-4.1-2.68-7.84-6.3-11.23-10.87-3.39-4.57-5.08-9.3-5.08-14.18,0-10.24,5.32-19.58,15.96-28.01,10.64-8.43,22.58-12.65,35.82-12.65,8.19,0,14.46,1.93,18.79,5.79,4.33,3.86,6.5,8.24,6.5,13.12,0,5.67-2.56,11.19-7.68,16.55-5.12,5.36-10.52,8.04-16.19,8.04-2.21,0-4.18-.43-5.91-1.3-1.74-.86-2.6-1.85-2.6-2.96,0-.31.39-.86,1.18-1.65,1.73-1.73,4.06-4.88,6.97-9.46,2.92-4.57,4.37-8.43,4.37-11.58,0-2.05-1.1-3.07-3.31-3.07Z"/><path class="cls-2" d="M425.51,185.46c0,1.57-.95,2.36-2.84,2.36-3.31,0-7.01-1.93-11.11-5.79-4.1-3.86-6.15-8.31-6.15-13.36,0-8.19,3.35-19.3,10.05-33.33,6.7-14.03,13.79-26.28,21.28-36.76,7.48-10.48,12.57-15.72,15.25-15.72,3.15,0,6.5,1.62,10.05,4.85,3.55,3.23,5.32,5.79,5.32,7.68,0,.79-.32,1.5-.95,2.13-9.3,11.51-18.44,27.3-27.42,47.4s-13.48,33.61-13.48,40.54ZM470.67,68.2c-2.68,0-4.77-.86-6.26-2.6-1.5-1.73-2.25-3.78-2.25-6.15,0-4.88,2.05-9.85,6.15-14.89,4.1-5.04,9.22-7.56,15.37-7.56,3.15,0,5.71,1.03,7.68,3.07,1.97,2.05,2.96,4.34,2.96,6.86,0,5.05-2.21,9.85-6.62,14.42-4.41,4.57-10.09,6.86-17.02,6.86Z"/><path class="cls-2" d="M471.14,185.46c0,1.57-.87,2.36-2.6,2.36-3.16,0-6.74-1.93-10.76-5.79-4.02-3.86-6.03-8.31-6.03-13.36,0-9.3,5.32-24.59,15.96-45.86,10.64-21.28,22.18-40.62,34.63-58.04,12.45-17.41,21.04-26.12,25.77-26.12,3.31,0,6.62,1.5,9.93,4.49,3.31,3,4.96,5.67,4.96,8.04,0,.95-.32,1.65-.95,2.13-14.03,14.82-28.41,35.74-43.14,62.76-14.74,27.03-23.99,50.16-27.78,69.38Z"/></g><g><path class="cls-1" d="M202.7,7.56c-3.71,0-8.11,1.89-13.18,5.67-5.08,3.78-7.62,7.63-7.62,11.55,0,.7.07,1.35.21,1.94.14.6.42,1.17.84,1.73.42.56.77,1.03,1.05,1.42.28.39.79.86,1.52,1.42.74.56,1.26.96,1.58,1.21.31.25.95.68,1.89,1.31.95.63,1.56,1.02,1.84,1.16,2.03,1.33,3.4,2.26,4.1,2.78.7.52,1.75,1.45,3.15,2.78,1.4,1.33,2.36,2.73,2.89,4.2.52,1.47.79,3.15.79,5.04,0,5.53-2.43,10.1-7.3,13.71-4.87,3.61-10.73,5.41-17.59,5.41-5.95,0-11.19-1.49-15.7-4.46s-6.78-6.98-6.78-12.03c0-3.36.95-6.13,2.84-8.3,1.89-2.17,3.54-3.26,4.94-3.26.49,0,.74.25.74.74.21,4.48,2.07,8.49,5.57,12.03,3.5,3.54,7.91,5.3,13.23,5.3,3.15,0,5.57-.59,7.25-1.79,1.68-1.19,2.52-2.73,2.52-4.62,0-2.73-3.19-5.88-9.56-9.45-2.52-1.47-4.5-2.75-5.94-3.83-1.44-1.08-2.82-2.69-4.15-4.83-1.33-2.14-2-4.53-2-7.2,0-4.69,1.68-9.17,5.04-13.44,3.36-4.27,7.54-7.63,12.55-10.08,5.01-2.45,9.96-3.68,14.86-3.68,4.55,0,8.23,1.05,11.03,3.15,2.8,2.1,4.2,4.9,4.2,8.4,0,4.2-1.8,8.02-5.41,11.45-3.61,3.43-7.23,5.15-10.87,5.15-1.33,0-2.42-.28-3.26-.84-.84-.56-1.26-1.16-1.26-1.79,0-.49.25-.87.74-1.16,5.88-5.67,8.82-10.26,8.82-13.76,0-2.03-1.19-3.05-3.57-3.05Z"/><path class="cls-1" d="M226.65,48.42c-2.03,0-3.85-.35-5.46-1.05-.56,1.89-.84,3.61-.84,5.15,0,3.71,1.85,5.57,5.57,5.57,4.41,0,8.4-2.27,11.97-6.83.35-.56.7-.84,1.05-.84.49,0,.93.28,1.31.84.38.56.54,1.26.47,2.1,0,2.66-2.19,5.6-6.56,8.82-4.38,3.22-9.02,4.83-13.92,4.83-3.92,0-7-1.07-9.24-3.2-2.24-2.14-3.36-5.13-3.36-8.98,0-4.62,1.64-9.73,4.94-15.34,3.29-5.6,7.33-10.31,12.13-14.13,4.8-3.82,9.23-5.72,13.29-5.72,2.8,0,5.3.86,7.51,2.57,2.21,1.72,3.31,4.11,3.31,7.2,0,4.48-2.4,8.77-7.2,12.87-4.8,4.1-9.79,6.14-14.97,6.14ZM239.57,25.52c-1.96,0-4.78,1.93-8.46,5.78-3.68,3.85-6.53,8.02-8.56,12.5.28.07.7.1,1.26.1,3.57,0,7.3-2.19,11.19-6.56,3.89-4.38,5.83-7.83,5.83-10.35,0-.98-.42-1.47-1.26-1.47Z"/><path class="cls-1" d="M313.41,20.69c2.52,0,4.69.86,6.51,2.57,1.82,1.72,2.73,3.35,2.73,4.88,0,.77-.25,1.3-.74,1.58-3.43,4.34-6.88,10.33-10.35,17.96-3.47,7.63-5.45,13.83-5.93,18.59,0,.7-.42,1.05-1.26,1.05-1.47,0-3.12-.86-4.94-2.57-1.82-1.71-2.73-3.69-2.73-5.93,0-4.34,1.64-9.63,4.94-15.86,3.29-6.23,6.65-11.34,10.08-15.34-4.62,3.5-10.8,9.68-18.54,18.54-7.74,8.86-12.48,15-14.23,18.43-.42,1.4-1.37,2.1-2.84,2.1s-2.7-.75-3.89-2.26c-1.19-1.5-1.79-3.59-1.79-6.25,0-4.69,3.57-13.16,10.71-25.42-4.97,4.76-10.35,10.56-16.12,17.38-5.78,6.83-9.37,11.61-10.77,14.34-.56,1.47-1.58,2.21-3.05,2.21s-2.78-.75-3.94-2.26c-1.16-1.5-1.73-3.59-1.73-6.25,0-3.01,1.45-7.58,4.36-13.71,2.91-6.13,6.04-11.62,9.4-16.49,3.36-4.87,5.67-7.3,6.93-7.3,1.4,0,2.8.67,4.2,2,1.4,1.33,2.1,2.52,2.1,3.57,0,.42-.14.74-.42.95-5.32,6.58-10.05,14.64-14.18,24.16,5.53-7.21,11.48-14.13,17.86-20.75,6.37-6.62,10.68-9.93,12.92-9.93,1.82,0,3.48.88,4.99,2.63,1.5,1.75,2.26,3.33,2.26,4.73,0,.49-.14.84-.42,1.05-4.97,6.02-9.35,13.59-13.13,22.69,5.46-7.21,11.41-14.2,17.86-20.96,6.44-6.76,10.82-10.14,13.13-10.14Z"/><path class="cls-1" d="M363.09,20.8c1.4,0,2.89.7,4.46,2.1,1.58,1.4,2.36,2.52,2.36,3.36,0,.35-.14.67-.42.95-3.64,4.48-7.48,11.03-11.5,19.64-4.03,8.61-6.04,14.99-6.04,19.12,0,.7-.39,1.05-1.16,1.05-1.4,0-2.99-.86-4.78-2.57-1.79-1.72-2.68-3.69-2.68-5.93s.88-5.6,2.63-10.08c-8.33,12.18-15.51,18.28-21.53,18.28-5.18,0-7.77-2.8-7.77-8.4,0-4.55,1.59-9.84,4.78-15.86,3.19-6.02,7.47-11.31,12.87-15.86,5.39-4.55,10.71-6.83,15.97-6.83,4.41,0,6.76,2.17,7.04,6.51,2.87-3.64,4.79-5.46,5.78-5.46ZM330.64,56.83c2.8,0,9.94-7.7,21.43-23.11l2-2.94c.07-.28.11-.66.11-1.16,0-1.05-.32-1.94-.95-2.68-.63-.73-1.3-1.1-2-1.1-2.38,0-5.38,1.98-8.98,5.93-3.61,3.96-6.67,8.28-9.19,12.97-2.52,4.69-3.78,8.12-3.78,10.29,0,1.19.46,1.79,1.37,1.79Z"/><path class="cls-1" d="M406.58,20.69c2.52,0,4.69.86,6.51,2.57,1.82,1.72,2.73,3.35,2.73,4.88,0,.77-.25,1.3-.74,1.58-3.43,4.34-6.88,10.33-10.35,17.96-3.47,7.63-5.45,13.83-5.93,18.59,0,.7-.42,1.05-1.26,1.05-1.47,0-3.12-.86-4.94-2.57-1.82-1.71-2.73-3.69-2.73-5.93,0-4.34,1.64-9.65,4.94-15.91,3.29-6.27,6.65-11.4,10.08-15.39-4.69,3.57-11.01,9.79-18.96,18.64-7.95,8.86-12.76,14.97-14.44,18.33-.56,1.47-1.58,2.21-3.05,2.21s-2.78-.75-3.94-2.26c-1.16-1.5-1.73-3.59-1.73-6.25,0-3.01,1.45-7.58,4.36-13.71,2.91-6.13,6.04-11.62,9.4-16.49,3.36-4.87,5.67-7.3,6.93-7.3,1.4,0,2.8.67,4.2,2,1.4,1.33,2.1,2.52,2.1,3.57,0,.42-.14.74-.42.95-5.04,6.16-9.56,13.8-13.55,22.9,5.46-6.86,11.4-13.48,17.8-19.85,6.41-6.37,10.73-9.56,12.97-9.56Z"/><path class="cls-1" d="M456.26,20.8c1.4,0,2.89.7,4.46,2.1,1.58,1.4,2.36,2.52,2.36,3.36,0,.35-.14.67-.42.95-3.64,4.48-7.48,11.03-11.5,19.64-4.03,8.61-6.04,14.99-6.04,19.12,0,.7-.39,1.05-1.16,1.05-1.4,0-2.99-.86-4.78-2.57-1.79-1.72-2.68-3.69-2.68-5.93s.88-5.6,2.63-10.08c-8.33,12.18-15.51,18.28-21.53,18.28-5.18,0-7.77-2.8-7.77-8.4,0-4.55,1.59-9.84,4.78-15.86,3.19-6.02,7.47-11.31,12.87-15.86,5.39-4.55,10.71-6.83,15.97-6.83,4.41,0,6.76,2.17,7.04,6.51,2.87-3.64,4.79-5.46,5.78-5.46ZM423.8,56.83c2.8,0,9.94-7.7,21.43-23.11l2-2.94c.07-.28.11-.66.11-1.16,0-1.05-.32-1.94-.95-2.68-.63-.73-1.3-1.1-2-1.1-2.38,0-5.38,1.98-8.98,5.93-3.61,3.96-6.67,8.28-9.19,12.97-2.52,4.69-3.78,8.12-3.78,10.29,0,1.19.46,1.79,1.37,1.79Z"/></g></g></g></svg>